<!-- <svg width="40" height="40" viewBox="0 0 40 40" fill="none" xmlns="http://www.w3.org/2000/svg">
<path d="M20 40C31.0457 40 40 31.0457 40 20C40 8.9543 31.0457 0 20 0C8.9543 0 0 8.9543 0 20C0 31.0457 8.9543 40 20 40Z" fill="#3056D3"/>
<path d="M30.552 31.36L12.4169 8H9V24.2405H11.7335V11.4714L28.4062 33.0129C29.1586 32.5095 29.8753 31.9568 30.552 31.36Z" fill="url(#paint0_linear_309_45)"/>
<path d="M25.473 8H22.7651V24.2473H25.473V8Z" fill="url(#paint1_linear_309_45)"/>
<defs>
<linearGradient id="paint0_linear_309_45" x1="21.4111" y1="22.1035" x2="29.4219" y2="32.0324" gradientUnits="userSpaceOnUse">
<stop stop-color="white"/>
<stop offset="1" stop-color="white" stop-opacity="0"/>
</linearGradient>
<linearGradient id="paint1_linear_309_45" x1="24.1191" y1="8" x2="24.0737" y2="19.9316" gradientUnits="userSpaceOnUse">
<stop stop-color="white"/>
<stop offset="1" stop-color="white" stop-opacity="0"/>
</linearGradient>
</defs>
</svg> -->
<svg xmlns="http://www.w3.org/2000/svg" xmlns:xlink="http://www.w3.org/1999/xlink" width="500" zoomAndPan="magnify" viewBox="0 0 375 374.999991" height="500" preserveAspectRatio="xMidYMid meet" version="1.0"><defs><clipPath id="a6fe60327f"><path d="M 32 188 L 176 188 L 176 334 L 32 334 Z M 32 188 " clip-rule="nonzero"/></clipPath><clipPath id="2450f8c4e1"><path d="M 2.769531 211.210938 L 104.113281 117.542969 L 244.613281 269.554688 L 143.273438 363.222656 Z M 2.769531 211.210938 " clip-rule="nonzero"/></clipPath><clipPath id="6d2ef6ad1b"><path d="M 2.769531 211.210938 L 104.113281 117.542969 L 244.613281 269.554688 L 143.273438 363.222656 Z M 2.769531 211.210938 " clip-rule="nonzero"/></clipPath><clipPath id="481c67e4ac"><path d="M 160 83 L 304 83 L 304 228 L 160 228 Z M 160 83 " clip-rule="nonzero"/></clipPath><clipPath id="7022257e8f"><path d="M 130.203125 105.78125 L 231.546875 12.113281 L 372.050781 164.128906 L 270.707031 257.796875 Z M 130.203125 105.78125 " clip-rule="nonzero"/></clipPath><clipPath id="b496b5bf38"><path d="M 130.203125 105.78125 L 231.546875 12.113281 L 372.050781 164.128906 L 270.707031 257.796875 Z M 130.203125 105.78125 " clip-rule="nonzero"/></clipPath></defs><g clip-path="url(#a6fe60327f)"><g clip-path="url(#2450f8c4e1)"><g clip-path="url(#6d2ef6ad1b)"><path fill="#38b6ff" d="M 175.585938 194.339844 L 52.003906 188.847656 C 28.132812 187.785156 24.101562 234.285156 52.386719 235.050781 L 129.285156 237.136719 L 123.410156 314.515625 C 121.621094 338.078125 167.578125 340.566406 168.890625 316.617188 Z M 175.585938 194.339844 " fill-opacity="1" fill-rule="nonzero"/></g></g></g><g clip-path="url(#481c67e4ac)"><g clip-path="url(#7022257e8f)"><g clip-path="url(#b496b5bf38)"><path fill="#5271ff" d="M 303.019531 88.910156 L 179.4375 83.417969 C 155.566406 82.359375 151.535156 128.855469 179.820312 129.625 L 256.71875 131.707031 L 250.84375 209.085938 C 249.058594 232.648438 295.011719 235.136719 296.324219 211.191406 Z M 303.019531 88.910156 " fill-opacity="1" fill-rule="nonzero"/></g></g></g></svg>