<!-- <svg width="40" height="40" viewBox="0 0 40 40" fill="none" xmlns="http://www.w3.org/2000/svg">
<path d="M20 40C31.0457 40 40 31.0457 40 20C40 8.9543 31.0457 0 20 0C8.9543 0 0 8.9543 0 20C0 31.0457 8.9543 40 20 40Z" fill="#3056D3"/>
<path d="M30.552 31.36L12.4169 8H9V24.2405H11.7335V11.4714L28.4062 33.0129C29.1586 32.5095 29.8753 31.9568 30.552 31.36Z" fill="url(#paint0_linear_309_45)"/>
<path d="M25.473 8H22.7651V24.2473H25.473V8Z" fill="url(#paint1_linear_309_45)"/>
<defs>
<linearGradient id="paint0_linear_309_45" x1="21.4111" y1="22.1035" x2="29.4219" y2="32.0324" gradientUnits="userSpaceOnUse">
<stop stop-color="white"/>
<stop offset="1" stop-color="white" stop-opacity="0"/>
</linearGradient>
<linearGradient id="paint1_linear_309_45" x1="24.1191" y1="8" x2="24.0737" y2="19.9316" gradientUnits="userSpaceOnUse">
<stop stop-color="white"/>
<stop offset="1" stop-color="white" stop-opacity="0"/>
</linearGradient>
</defs>
</svg> -->


<svg xmlns="http://www.w3.org/2000/svg" xmlns:xlink="http://www.w3.org/1999/xlink" width="500" zoomAndPan="magnify" viewBox="0 0 375 374.999991" height="500" preserveAspectRatio="xMidYMid meet" version="1.0"><defs><g/></defs><g fill="#ffffff" fill-opacity="1"><g transform="translate(140.3142, 195.493638)"><g><path d="M 25.890625 0 L 21.625 0 L 19 -5.234375 L 7.21875 -5.234375 L 4.625 0 L 0.359375 0 L 10.765625 -20.609375 L 15.421875 -20.609375 Z M 17.328125 -8.65625 L 13.078125 -17.15625 L 8.921875 -8.65625 Z M 17.328125 -8.65625 "/></g></g></g><g fill="#ffffff" fill-opacity="1"><g transform="translate(168.058193, 195.493638)"><g><path d="M 25.15625 -4.109375 L 29.984375 -20.609375 L 34.34375 -20.609375 L 28 0 L 22.59375 0 L 17.40625 -16.4375 L 12.671875 0 L 7.234375 0 L 0.40625 -20.609375 L 4.78125 -20.609375 L 10.03125 -4.109375 L 14.8125 -20.609375 L 19.9375 -20.609375 Z M 25.15625 -4.109375 "/></g></g></g><g fill="#ffffff" fill-opacity="1"><g transform="translate(204.338689, 195.493638)"><g><path d="M 5.390625 0 L 1.375 0 L 1.375 -20.609375 L 5.390625 -20.609375 Z M 5.390625 0 "/></g></g></g><g fill="#ffffff" fill-opacity="1"><g transform="translate(212.621504, 195.493638)"><g><path d="M 10.96875 0.328125 C 8.882812 0.328125 6.96875 0.15625 5.21875 -0.1875 C 3.476562 -0.539062 2.050781 -1.003906 0.9375 -1.578125 L 2.75 -4.984375 C 3.914062 -4.398438 5.179688 -3.988281 6.546875 -3.75 C 7.921875 -3.519531 9.328125 -3.40625 10.765625 -3.40625 C 12.648438 -3.40625 14.117188 -3.578125 15.171875 -3.921875 C 16.234375 -4.273438 16.765625 -4.847656 16.765625 -5.640625 L 16.765625 -5.6875 C 16.765625 -6.414062 16.242188 -6.988281 15.203125 -7.40625 C 14.160156 -7.820312 12.503906 -8.257812 10.234375 -8.71875 C 8.390625 -9.082031 6.835938 -9.519531 5.578125 -10.03125 C 4.316406 -10.539062 3.363281 -11.203125 2.71875 -12.015625 C 2.070312 -12.828125 1.75 -13.867188 1.75 -15.140625 L 1.75 -15.1875 C 1.75 -17.039062 2.550781 -18.460938 4.15625 -19.453125 C 5.757812 -20.453125 8.039062 -20.953125 11 -20.953125 C 12.1875 -20.953125 13.363281 -20.863281 14.53125 -20.6875 C 15.695312 -20.507812 16.785156 -20.273438 17.796875 -19.984375 C 18.816406 -19.703125 19.675781 -19.375 20.375 -19 L 18.546875 -15.671875 C 17.972656 -15.992188 17.242188 -16.269531 16.359375 -16.5 C 15.484375 -16.726562 14.554688 -16.90625 13.578125 -17.03125 C 12.609375 -17.15625 11.671875 -17.21875 10.765625 -17.21875 C 7.484375 -17.21875 5.84375 -16.550781 5.84375 -15.21875 L 5.84375 -15.171875 C 5.84375 -14.816406 5.992188 -14.488281 6.296875 -14.1875 C 6.609375 -13.894531 7.171875 -13.613281 7.984375 -13.34375 C 8.804688 -13.070312 9.972656 -12.773438 11.484375 -12.453125 C 13.328125 -12.078125 14.859375 -11.671875 16.078125 -11.234375 C 17.296875 -10.804688 18.253906 -10.328125 18.953125 -9.796875 C 19.660156 -9.273438 20.160156 -8.679688 20.453125 -8.015625 C 20.753906 -7.347656 20.90625 -6.582031 20.90625 -5.71875 L 20.90625 -5.671875 C 20.90625 -3.679688 20.039062 -2.179688 18.3125 -1.171875 C 16.582031 -0.171875 14.132812 0.328125 10.96875 0.328125 Z M 10.96875 0.328125 "/></g></g></g><path stroke-linecap="butt" transform="matrix(0.75, 0, 0, 0.75, 95.363854, 209.618307)" fill="none" stroke-linejoin="miter" d="M -0.000763984 3.998508 L 64.066949 3.998508 " stroke="#ffffff" stroke-width="8" stroke-opacity="1" stroke-miterlimit="4"/><path stroke-linecap="butt" transform="matrix(0.75, 0, 0, 0.75, 232.539496, 209.618307)" fill="none" stroke-linejoin="miter" d="M -0.000577507 3.998508 L 64.067135 3.998508 " stroke="#ffffff" stroke-width="8" stroke-opacity="1" stroke-miterlimit="4"/><path stroke-linecap="butt" transform="matrix(0.75, 0, 0, 0.75, 95.363854, 156.56753)" fill="none" stroke-linejoin="miter" d="M -0.000763984 3.998502 L 246.968002 3.998502 " stroke="#ffffff" stroke-width="8" stroke-opacity="1" stroke-miterlimit="4"/><g fill="#ffffff" fill-opacity="1"><g transform="translate(146.744935, 215.731392)"><g><path d="M 3.8125 -8.34375 C 4.882812 -8.34375 5.851562 -8.0625 6.71875 -7.5 L 6.140625 -6.265625 C 5.296875 -6.773438 4.484375 -7.03125 3.703125 -7.03125 C 3.285156 -7.03125 2.957031 -6.953125 2.71875 -6.796875 C 2.476562 -6.648438 2.359375 -6.4375 2.359375 -6.15625 C 2.359375 -5.882812 2.46875 -5.648438 2.6875 -5.453125 C 2.90625 -5.265625 3.179688 -5.125 3.515625 -5.03125 C 3.847656 -4.945312 4.207031 -4.832031 4.59375 -4.6875 C 4.976562 -4.550781 5.335938 -4.40625 5.671875 -4.25 C 6.003906 -4.101562 6.28125 -3.863281 6.5 -3.53125 C 6.71875 -3.207031 6.828125 -2.8125 6.828125 -2.34375 C 6.828125 -1.613281 6.535156 -1.03125 5.953125 -0.59375 C 5.367188 -0.164062 4.613281 0.046875 3.6875 0.046875 C 3.0625 0.046875 2.453125 -0.0664062 1.859375 -0.296875 C 1.265625 -0.535156 0.75 -0.859375 0.3125 -1.265625 L 0.90625 -2.46875 C 1.332031 -2.082031 1.796875 -1.785156 2.296875 -1.578125 C 2.796875 -1.367188 3.269531 -1.265625 3.71875 -1.265625 C 4.207031 -1.265625 4.585938 -1.351562 4.859375 -1.53125 C 5.128906 -1.707031 5.265625 -1.957031 5.265625 -2.28125 C 5.265625 -2.5625 5.15625 -2.796875 4.9375 -2.984375 C 4.71875 -3.179688 4.441406 -3.320312 4.109375 -3.40625 C 3.773438 -3.5 3.414062 -3.609375 3.03125 -3.734375 C 2.644531 -3.867188 2.285156 -4.007812 1.953125 -4.15625 C 1.617188 -4.300781 1.34375 -4.535156 1.125 -4.859375 C 0.90625 -5.191406 0.796875 -5.585938 0.796875 -6.046875 C 0.796875 -6.742188 1.070312 -7.300781 1.625 -7.71875 C 2.175781 -8.132812 2.90625 -8.34375 3.8125 -8.34375 Z M 3.8125 -8.34375 "/></g></g></g><g fill="#ffffff" fill-opacity="1"><g transform="translate(155.659082, 215.731392)"><g><path d="M 1.671875 -7.125 C 2.515625 -7.925781 3.554688 -8.328125 4.796875 -8.328125 C 6.035156 -8.328125 7.078125 -7.925781 7.921875 -7.125 C 8.765625 -6.320312 9.1875 -5.328125 9.1875 -4.140625 C 9.1875 -2.960938 8.765625 -1.96875 7.921875 -1.15625 C 7.078125 -0.34375 6.035156 0.0625 4.796875 0.0625 C 3.554688 0.0625 2.515625 -0.34375 1.671875 -1.15625 C 0.828125 -1.96875 0.40625 -2.960938 0.40625 -4.140625 C 0.40625 -5.328125 0.828125 -6.320312 1.671875 -7.125 Z M 4.8125 -7.078125 C 3.988281 -7.078125 3.285156 -6.789062 2.703125 -6.21875 C 2.117188 -5.65625 1.828125 -4.960938 1.828125 -4.140625 C 1.828125 -3.316406 2.117188 -2.617188 2.703125 -2.046875 C 3.296875 -1.484375 4 -1.203125 4.8125 -1.203125 C 5.625 -1.203125 6.316406 -1.484375 6.890625 -2.046875 C 7.460938 -2.617188 7.75 -3.316406 7.75 -4.140625 C 7.75 -4.960938 7.460938 -5.65625 6.890625 -6.21875 C 6.316406 -6.789062 5.625 -7.078125 4.8125 -7.078125 Z M 4.8125 -7.078125 "/></g></g></g><g fill="#ffffff" fill-opacity="1"><g transform="translate(166.798373, 215.731392)"><g><path d="M 2.484375 -1.265625 L 6.078125 -1.265625 L 6.078125 0 L 1.09375 0 L 1.09375 -8.296875 L 2.484375 -8.296875 Z M 2.484375 -1.265625 "/></g></g></g><g fill="#ffffff" fill-opacity="1"><g transform="translate(174.670961, 215.731392)"><g><path d="M 8.140625 -8.296875 L 8.140625 -3.4375 C 8.140625 -2.351562 7.816406 -1.5 7.171875 -0.875 C 6.535156 -0.25 5.65625 0.0625 4.53125 0.0625 C 3.414062 0.0625 2.535156 -0.25 1.890625 -0.875 C 1.242188 -1.5 0.921875 -2.351562 0.921875 -3.4375 L 0.921875 -8.296875 L 2.328125 -8.296875 L 2.328125 -3.4375 C 2.328125 -2.738281 2.523438 -2.191406 2.921875 -1.796875 C 3.316406 -1.398438 3.859375 -1.203125 4.546875 -1.203125 C 5.222656 -1.203125 5.753906 -1.394531 6.140625 -1.78125 C 6.535156 -2.175781 6.734375 -2.726562 6.734375 -3.4375 L 6.734375 -8.296875 Z M 8.140625 -8.296875 "/></g></g></g><g fill="#ffffff" fill-opacity="1"><g transform="translate(185.265797, 215.731392)"><g><path d="M 6.75 -7.03125 L 4.125 -7.03125 L 4.125 0 L 2.71875 0 L 2.71875 -7.03125 L 0.109375 -7.03125 L 0.109375 -8.296875 L 6.75 -8.296875 Z M 6.75 -7.03125 "/></g></g></g><g fill="#ffffff" fill-opacity="1"><g transform="translate(193.671001, 215.731392)"><g><path d="M 2.484375 0 L 1.09375 0 L 1.09375 -8.296875 L 2.484375 -8.296875 Z M 2.484375 0 "/></g></g></g><g fill="#ffffff" fill-opacity="1"><g transform="translate(198.797668, 215.731392)"><g><path d="M 1.671875 -7.125 C 2.515625 -7.925781 3.554688 -8.328125 4.796875 -8.328125 C 6.035156 -8.328125 7.078125 -7.925781 7.921875 -7.125 C 8.765625 -6.320312 9.1875 -5.328125 9.1875 -4.140625 C 9.1875 -2.960938 8.765625 -1.96875 7.921875 -1.15625 C 7.078125 -0.34375 6.035156 0.0625 4.796875 0.0625 C 3.554688 0.0625 2.515625 -0.34375 1.671875 -1.15625 C 0.828125 -1.96875 0.40625 -2.960938 0.40625 -4.140625 C 0.40625 -5.328125 0.828125 -6.320312 1.671875 -7.125 Z M 4.8125 -7.078125 C 3.988281 -7.078125 3.285156 -6.789062 2.703125 -6.21875 C 2.117188 -5.65625 1.828125 -4.960938 1.828125 -4.140625 C 1.828125 -3.316406 2.117188 -2.617188 2.703125 -2.046875 C 3.296875 -1.484375 4 -1.203125 4.8125 -1.203125 C 5.625 -1.203125 6.316406 -1.484375 6.890625 -2.046875 C 7.460938 -2.617188 7.75 -3.316406 7.75 -4.140625 C 7.75 -4.960938 7.460938 -5.65625 6.890625 -6.21875 C 6.316406 -6.789062 5.625 -7.078125 4.8125 -7.078125 Z M 4.8125 -7.078125 "/></g></g></g><g fill="#ffffff" fill-opacity="1"><g transform="translate(209.936957, 215.731392)"><g><path d="M 8.28125 0 L 6.90625 0 L 2.484375 -5.953125 L 2.484375 0 L 1.09375 0 L 1.09375 -8.296875 L 2.46875 -8.296875 L 6.90625 -2.328125 L 6.90625 -8.296875 L 8.28125 -8.296875 Z M 8.28125 0 "/></g></g></g><g fill="#ffffff" fill-opacity="1"><g transform="translate(220.863203, 215.731392)"><g><path d="M 3.8125 -8.34375 C 4.882812 -8.34375 5.851562 -8.0625 6.71875 -7.5 L 6.140625 -6.265625 C 5.296875 -6.773438 4.484375 -7.03125 3.703125 -7.03125 C 3.285156 -7.03125 2.957031 -6.953125 2.71875 -6.796875 C 2.476562 -6.648438 2.359375 -6.4375 2.359375 -6.15625 C 2.359375 -5.882812 2.46875 -5.648438 2.6875 -5.453125 C 2.90625 -5.265625 3.179688 -5.125 3.515625 -5.03125 C 3.847656 -4.945312 4.207031 -4.832031 4.59375 -4.6875 C 4.976562 -4.550781 5.335938 -4.40625 5.671875 -4.25 C 6.003906 -4.101562 6.28125 -3.863281 6.5 -3.53125 C 6.71875 -3.207031 6.828125 -2.8125 6.828125 -2.34375 C 6.828125 -1.613281 6.535156 -1.03125 5.953125 -0.59375 C 5.367188 -0.164062 4.613281 0.046875 3.6875 0.046875 C 3.0625 0.046875 2.453125 -0.0664062 1.859375 -0.296875 C 1.265625 -0.535156 0.75 -0.859375 0.3125 -1.265625 L 0.90625 -2.46875 C 1.332031 -2.082031 1.796875 -1.785156 2.296875 -1.578125 C 2.796875 -1.367188 3.269531 -1.265625 3.71875 -1.265625 C 4.207031 -1.265625 4.585938 -1.351562 4.859375 -1.53125 C 5.128906 -1.707031 5.265625 -1.957031 5.265625 -2.28125 C 5.265625 -2.5625 5.15625 -2.796875 4.9375 -2.984375 C 4.71875 -3.179688 4.441406 -3.320312 4.109375 -3.40625 C 3.773438 -3.5 3.414062 -3.609375 3.03125 -3.734375 C 2.644531 -3.867188 2.285156 -4.007812 1.953125 -4.15625 C 1.617188 -4.300781 1.34375 -4.535156 1.125 -4.859375 C 0.90625 -5.191406 0.796875 -5.585938 0.796875 -6.046875 C 0.796875 -6.742188 1.070312 -7.300781 1.625 -7.71875 C 2.175781 -8.132812 2.90625 -8.34375 3.8125 -8.34375 Z M 3.8125 -8.34375 "/></g></g></g></svg>