<!-- <svg width="40" height="40" viewBox="0 0 40 40" fill="none" xmlns="http://www.w3.org/2000/svg">
<path d="M20 40C31.0457 40 40 31.0457 40 20C40 8.9543 31.0457 0 20 0C8.9543 0 0 8.9543 0 20C0 31.0457 8.9543 40 20 40Z" fill="#3056D3"/>
<path d="M30.552 31.36L12.4169 8H9V24.2405H11.7335V11.4714L28.4062 33.0129C29.1586 32.5095 29.8753 31.9568 30.552 31.36Z" fill="url(#paint0_linear_309_45)"/>
<path d="M25.473 8H22.7651V24.2473H25.473V8Z" fill="url(#paint1_linear_309_45)"/>
<defs>
<linearGradient id="paint0_linear_309_45" x1="21.4111" y1="22.1035" x2="29.4219" y2="32.0324" gradientUnits="userSpaceOnUse">
<stop stop-color="white"/>
<stop offset="1" stop-color="white" stop-opacity="0"/>
</linearGradient>
<linearGradient id="paint1_linear_309_45" x1="24.1191" y1="8" x2="24.0737" y2="19.9316" gradientUnits="userSpaceOnUse">
<stop stop-color="white"/>
<stop offset="1" stop-color="white" stop-opacity="0"/>
</linearGradient>
</defs>
</svg> -->
<svg xmlns="http://www.w3.org/2000/svg" xmlns:xlink="http://www.w3.org/1999/xlink" width="48" zoomAndPan="magnify" viewBox="0 0 36 36.000001" height="48" preserveAspectRatio="xMidYMid meet" version="1.0"><defs><clipPath id="86f8f40d65"><path d="M 6 15 L 21 15 L 21 29 L 6 29 Z M 6 15 " clip-rule="nonzero"/></clipPath><clipPath id="f1138b5294"><path d="M 3.992188 17.332031 L 13.636719 8.414062 L 26.515625 22.347656 L 16.867188 31.265625 Z M 3.992188 17.332031 " clip-rule="nonzero"/></clipPath><clipPath id="431a2becc1"><path d="M 3.992188 17.332031 L 13.636719 8.414062 L 26.515625 22.347656 L 16.867188 31.265625 Z M 3.992188 17.332031 " clip-rule="nonzero"/></clipPath><clipPath id="1ba015012f"><path d="M 15 7 L 29 7 L 29 22 L 15 22 Z M 15 7 " clip-rule="nonzero"/></clipPath><clipPath id="4ec28b29a4"><path d="M 12.648438 9.878906 L 22.296875 0.960938 L 35.175781 14.894531 L 25.527344 23.8125 Z M 12.648438 9.878906 " clip-rule="nonzero"/></clipPath><clipPath id="4cc7616be4"><path d="M 12.648438 9.878906 L 22.296875 0.960938 L 35.175781 14.894531 L 25.527344 23.8125 Z M 12.648438 9.878906 " clip-rule="nonzero"/></clipPath></defs><g clip-path="url(#86f8f40d65)"><g clip-path="url(#f1138b5294)"><g clip-path="url(#431a2becc1)"><path fill="#38b6ff" d="M 20.125 15.757812 L 8.589844 15.242188 C 6.359375 15.144531 5.984375 19.484375 8.625 19.558594 L 15.804688 19.753906 L 15.253906 26.976562 C 15.089844 29.175781 19.378906 29.410156 19.5 27.171875 Z M 20.125 15.757812 " fill-opacity="1" fill-rule="nonzero"/></g></g></g><g clip-path="url(#1ba015012f)"><g clip-path="url(#4ec28b29a4)"><g clip-path="url(#4cc7616be4)"><path fill="#5271ff" d="M 28.785156 8.304688 L 17.246094 7.789062 C 15.019531 7.691406 14.640625 12.03125 17.28125 12.105469 L 24.460938 12.300781 L 23.914062 19.523438 C 23.746094 21.722656 28.039062 21.957031 28.160156 19.71875 Z M 28.785156 8.304688 " fill-opacity="1" fill-rule="nonzero"/></g></g></g></svg>