<!-- <svg width="40" height="40" viewBox="0 0 40 40" fill="none" xmlns="http://www.w3.org/2000/svg">
<path d="M20 40C31.0457 40 40 31.0457 40 20C40 8.9543 31.0457 0 20 0C8.9543 0 0 8.9543 0 20C0 31.0457 8.9543 40 20 40Z" fill="#3056D3"/>
<path d="M30.552 31.36L12.4169 8H9V24.2405H11.7335V11.4714L28.4062 33.0129C29.1586 32.5095 29.8753 31.9568 30.552 31.36Z" fill="url(#paint0_linear_309_45)"/>
<path d="M25.473 8H22.7651V24.2473H25.473V8Z" fill="url(#paint1_linear_309_45)"/>
<defs>
<linearGradient id="paint0_linear_309_45" x1="21.4111" y1="22.1035" x2="29.4219" y2="32.0324" gradientUnits="userSpaceOnUse">
<stop stop-color="white"/>
<stop offset="1" stop-color="white" stop-opacity="0"/>
</linearGradient>
<linearGradient id="paint1_linear_309_45" x1="24.1191" y1="8" x2="24.0737" y2="19.9316" gradientUnits="userSpaceOnUse">
<stop stop-color="white"/>
<stop offset="1" stop-color="white" stop-opacity="0"/>
</linearGradient>
</defs>
</svg> -->

<svg xmlns="http://www.w3.org/2000/svg" xmlns:xlink="http://www.w3.org/1999/xlink" width="500" zoomAndPan="magnify" viewBox="0 0 375 374.999991" height="500" preserveAspectRatio="xMidYMid meet" version="1.0"><defs><clipPath id="e9808122ba"><path d="M 160 164 L 170 164 L 170 173 L 160 173 Z M 160 164 " clip-rule="nonzero"/></clipPath><clipPath id="9a323400e8"><path d="M 158.914062 165.335938 L 164.972656 159.738281 L 173.117188 168.550781 L 167.058594 174.148438 Z M 158.914062 165.335938 " clip-rule="nonzero"/></clipPath><clipPath id="0f72c3988c"><path d="M 158.914062 165.335938 L 164.972656 159.738281 L 173.117188 168.550781 L 167.058594 174.148438 Z M 158.914062 165.335938 " clip-rule="nonzero"/></clipPath><clipPath id="77e55e8a10"><path d="M 168 157 L 177 157 L 177 167 L 168 167 Z M 168 157 " clip-rule="nonzero"/></clipPath><clipPath id="c6025f5610"><path d="M 166.511719 159.050781 L 172.570312 153.449219 L 180.714844 162.261719 L 174.65625 167.863281 Z M 166.511719 159.050781 " clip-rule="nonzero"/></clipPath><clipPath id="b660af2d22"><path d="M 166.511719 159.050781 L 172.570312 153.449219 L 180.714844 162.261719 L 174.65625 167.863281 Z M 166.511719 159.050781 " clip-rule="nonzero"/></clipPath></defs><g clip-path="url(#e9808122ba)"><g clip-path="url(#9a323400e8)"><g clip-path="url(#0f72c3988c)"><path fill="#38b6ff" d="M 169.214844 164.328125 L 161.851562 164.003906 C 160.425781 163.9375 160.1875 166.710938 161.871094 166.757812 L 166.457031 166.878906 L 166.105469 171.492188 C 166 172.898438 168.738281 173.042969 168.816406 171.617188 Z M 169.214844 164.328125 " fill-opacity="1" fill-rule="nonzero"/></g></g></g><g clip-path="url(#77e55e8a10)"><g clip-path="url(#c6025f5610)"><g clip-path="url(#b660af2d22)"><path fill="#5271ff" d="M 176.8125 158.042969 L 169.449219 157.714844 C 168.023438 157.652344 167.785156 160.425781 169.46875 160.46875 L 174.054688 160.59375 L 173.703125 165.207031 C 173.597656 166.609375 176.335938 166.757812 176.414062 165.332031 Z M 176.8125 158.042969 " fill-opacity="1" fill-rule="nonzero"/></g></g></g></svg>