<!-- <svg width="258" height="91" viewBox="0 0 258 91" fill="none" xmlns="http://www.w3.org/2000/svg">
<g clip-path="url(#clip0_2524_2362)">
<path d="M102.852 23.0666C106.624 23.0666 109.899 23.6884 112.677 24.9321C115.496 26.1757 117.651 27.9582 119.144 30.2797C120.636 32.6012 121.382 35.3578 121.382 38.5499C121.382 41.7004 120.636 44.4572 119.144 46.8201C117.651 49.1416 115.496 50.9241 112.677 52.1677C109.899 53.4113 106.624 54.0331 102.852 54.0331H93.0273V66.5939H84.9436V23.0666H102.852ZM102.479 47.1931C106.002 47.1931 108.676 46.447 110.5 44.9546C112.324 43.4622 113.236 41.3273 113.236 38.5499C113.236 35.7725 112.324 33.6375 110.5 32.1452C108.676 30.6528 106.002 29.9066 102.479 29.9066H93.0273V47.1931H102.479ZM133.546 23.0666H141.629V59.7539H164.388V66.5939H133.546V23.0666ZM203.395 56.5204H181.631L177.34 66.5939H169.008L188.595 23.0666H196.555L216.204 66.5939H207.747L203.395 56.5204ZM200.721 50.1779L192.513 31.1503L184.367 50.1779H200.721ZM241.998 51.235V66.5939H233.914V51.3593L216.814 23.0666H225.458L238.205 44.2706L251.077 23.0666H259.036L241.998 51.235Z" fill="white"/>
<path d="M32.8717 77.5575C50.9464 77.5575 65.5989 62.905 65.5989 44.8302C65.5989 26.7555 50.9464 12.103 32.8717 12.103C14.7969 12.103 0.144409 26.7555 0.144409 44.8302C0.144409 62.905 14.7969 77.5575 32.8717 77.5575Z" fill="white"/>
<path d="M51.8019 67.0049L25.399 32.0522H19.8078V58.6276H24.2807V37.7327L48.2906 69.7097C49.5218 68.8859 50.6946 67.9815 51.8019 67.0049Z" fill="url(#paint0_linear_2524_2362)"/>
<path d="M46.7635 32.0522H42.3324V58.6387H46.7635V32.0522Z" fill="url(#paint1_linear_2524_2362)"/>
</g>
<defs>
<linearGradient id="paint0_linear_2524_2362" x1="34.9514" y1="48.1863" x2="49.8194" y2="66.9607" gradientUnits="userSpaceOnUse">
<stop stop-color="#3056D3"/>
<stop offset="1" stop-color="white" stop-opacity="0"/>
</linearGradient>
<linearGradient id="paint1_linear_2524_2362" x1="44.5481" y1="32.0522" x2="44.4738" y2="51.5767" gradientUnits="userSpaceOnUse">
<stop stop-color="#3056D3"/>
<stop offset="1" stop-color="white" stop-opacity="0"/>
</linearGradient>
<clipPath id="clip0_2524_2362">
<rect width="256.909" height="90" fill="white" transform="translate(0.144409 0.648438)"/>
</clipPath>
</defs>
</svg>  -->

<!-- new logo -->
<svg xmlns="http://www.w3.org/2000/svg" xmlns:xlink="http://www.w3.org/1999/xlink" width="500" zoomAndPan="magnify" viewBox="0 0 375 374.999991" height="500" preserveAspectRatio="xMidYMid meet" version="1.0"><defs><g/><clipPath id="dbcb398fb5"><path d="M 243 164 L 265 164 L 265 186 L 243 186 Z M 243 164 " clip-rule="nonzero"/></clipPath><clipPath id="25da47484b"><path d="M 238.890625 167.875 L 253.761719 154.132812 L 274.121094 176.160156 L 259.25 189.90625 Z M 238.890625 167.875 " clip-rule="nonzero"/></clipPath><clipPath id="42809112be"><path d="M 238.890625 167.875 L 253.761719 154.132812 L 274.121094 176.160156 L 259.25 189.90625 Z M 238.890625 167.875 " clip-rule="nonzero"/></clipPath><clipPath id="c17b7536d9"><path d="M 253 155 L 275 155 L 275 177 L 253 177 Z M 253 155 " clip-rule="nonzero"/></clipPath><clipPath id="f985ebfcd9"><path d="M 249.316406 158.589844 L 264.1875 144.84375 L 284.550781 166.875 L 269.679688 180.621094 Z M 249.316406 158.589844 " clip-rule="nonzero"/></clipPath><clipPath id="f3d9102e41"><path d="M 249.316406 158.589844 L 264.1875 144.84375 L 284.550781 166.875 L 269.679688 180.621094 Z M 249.316406 158.589844 " clip-rule="nonzero"/></clipPath></defs><g clip-path="url(#dbcb398fb5)"><g clip-path="url(#25da47484b)"><g clip-path="url(#42809112be)"><path fill="#38b6ff" d="M 264.097656 165.417969 L 246.070312 164.617188 C 242.589844 164.460938 242.003906 171.242188 246.128906 171.355469 L 257.34375 171.660156 L 256.484375 182.945312 C 256.226562 186.382812 262.925781 186.742188 263.117188 183.25 Z M 264.097656 165.417969 " fill-opacity="1" fill-rule="nonzero"/></g></g></g><g clip-path="url(#c17b7536d9)"><g clip-path="url(#f985ebfcd9)"><g clip-path="url(#f3d9102e41)"><path fill="#5271ff" d="M 274.523438 156.132812 L 256.5 155.332031 C 253.015625 155.175781 252.429688 161.957031 256.554688 162.070312 L 267.769531 162.375 L 266.914062 173.660156 C 266.652344 177.09375 273.355469 177.457031 273.546875 173.964844 Z M 274.523438 156.132812 " fill-opacity="1" fill-rule="nonzero"/></g></g></g><g fill="#ffffff" fill-opacity="1"><g transform="translate(129.871241, 204.845628)"><g><path d="M 24.953125 -27.3125 C 25.878906 -27.3125 26.617188 -27.050781 27.171875 -26.53125 C 27.734375 -26.007812 28.015625 -25.335938 28.015625 -24.515625 L 28.015625 -2.796875 C 28.015625 -1.972656 27.734375 -1.300781 27.171875 -0.78125 C 26.617188 -0.257812 25.878906 0 24.953125 0 C 24.054688 0 23.359375 -0.203125 22.859375 -0.609375 C 22.359375 -1.023438 22.054688 -1.570312 21.953125 -2.25 C 20.734375 -1.289062 19.367188 -0.585938 17.859375 -0.140625 C 16.359375 0.304688 14.929688 0.53125 13.578125 0.53125 C 11.003906 0.53125 8.773438 -0.0546875 6.890625 -1.234375 C 5.015625 -2.410156 3.578125 -4.070312 2.578125 -6.21875 C 1.578125 -8.363281 1.078125 -10.867188 1.078125 -13.734375 C 1.078125 -16.523438 1.628906 -18.972656 2.734375 -21.078125 C 3.847656 -23.191406 5.394531 -24.847656 7.375 -26.046875 C 9.363281 -27.242188 11.660156 -27.84375 14.265625 -27.84375 C 15.410156 -27.84375 16.679688 -27.628906 18.078125 -27.203125 C 19.472656 -26.773438 20.765625 -26.097656 21.953125 -25.171875 C 22.085938 -25.804688 22.40625 -26.320312 22.90625 -26.71875 C 23.40625 -27.113281 24.085938 -27.3125 24.953125 -27.3125 Z M 14.21875 -4.875 C 15.789062 -4.875 17.3125 -5.222656 18.78125 -5.921875 C 20.25 -6.617188 21.285156 -7.648438 21.890625 -9.015625 L 21.890625 -18.296875 C 21.210938 -19.617188 20.191406 -20.632812 18.828125 -21.34375 C 17.472656 -22.0625 16.097656 -22.421875 14.703125 -22.421875 C 12.453125 -22.421875 10.632812 -21.597656 9.25 -19.953125 C 7.875 -18.304688 7.1875 -16.21875 7.1875 -13.6875 C 7.1875 -11.039062 7.828125 -8.910156 9.109375 -7.296875 C 10.398438 -5.679688 12.101562 -4.875 14.21875 -4.875 Z M 14.21875 -4.875 "/></g></g></g><g fill="#ffffff" fill-opacity="1"><g transform="translate(160.880945, 204.845628)"><g><path d="M 1.234375 -23.28125 C 0.910156 -24.03125 0.882812 -24.707031 1.15625 -25.3125 C 1.425781 -25.925781 1.84375 -26.410156 2.40625 -26.765625 C 2.976562 -27.128906 3.570312 -27.3125 4.1875 -27.3125 C 4.789062 -27.3125 5.359375 -27.125 5.890625 -26.75 C 6.429688 -26.375 6.789062 -25.953125 6.96875 -25.484375 L 13.953125 -9.546875 L 20.65625 -23.34375 C 20.90625 -23.945312 21.28125 -24.398438 21.78125 -24.703125 C 22.28125 -25.015625 22.835938 -25.171875 23.453125 -25.171875 C 24.773438 -25.171875 25.722656 -24.578125 26.296875 -23.390625 L 33.046875 -9.4375 L 39.96875 -25.375 C 40.539062 -26.664062 41.507812 -27.3125 42.875 -27.3125 C 43.800781 -27.3125 44.59375 -26.925781 45.25 -26.15625 C 45.914062 -25.382812 46.015625 -24.445312 45.546875 -23.34375 L 36.0625 -1.015625 C 35.664062 0.015625 34.753906 0.53125 33.328125 0.53125 C 32.710938 0.53125 32.144531 0.414062 31.625 0.1875 C 31.113281 -0.0390625 30.710938 -0.425781 30.421875 -0.96875 L 23.5625 -15.5 L 16.53125 -1.015625 C 16.03125 0.015625 15.0625 0.53125 13.625 0.53125 C 13.019531 0.53125 12.484375 0.414062 12.015625 0.1875 C 11.554688 -0.0390625 11.179688 -0.460938 10.890625 -1.078125 Z M 1.234375 -23.28125 "/></g></g></g><g fill="#ffffff" fill-opacity="1"><g transform="translate(207.610343, 204.845628)"><g><path d="M 8.046875 -31.328125 C 8.046875 -30.441406 7.710938 -29.773438 7.046875 -29.328125 C 6.390625 -28.878906 5.6875 -28.65625 4.9375 -28.65625 C 4.144531 -28.65625 3.425781 -28.878906 2.78125 -29.328125 C 2.144531 -29.773438 1.828125 -30.441406 1.828125 -31.328125 L 1.828125 -32.03125 C 1.828125 -32.957031 2.144531 -33.632812 2.78125 -34.0625 C 3.425781 -34.5 4.144531 -34.71875 4.9375 -34.71875 C 5.6875 -34.71875 6.390625 -34.5 7.046875 -34.0625 C 7.710938 -33.632812 8.046875 -32.957031 8.046875 -32.03125 Z M 1.875 -24.6875 C 1.875 -25.539062 2.203125 -26.191406 2.859375 -26.640625 C 3.523438 -27.085938 4.21875 -27.3125 4.9375 -27.3125 C 5.6875 -27.3125 6.382812 -27.085938 7.03125 -26.640625 C 7.675781 -26.191406 8 -25.554688 8 -24.734375 L 8 -2.625 C 8 -1.726562 7.675781 -1.066406 7.03125 -0.640625 C 6.382812 -0.210938 5.6875 0 4.9375 0 C 4.21875 0 3.523438 -0.210938 2.859375 -0.640625 C 2.203125 -1.066406 1.875 -1.726562 1.875 -2.625 Z M 1.875 -24.6875 "/></g></g></g><g fill="#ffffff" fill-opacity="1"><g transform="translate(216.408601, 204.845628)"><g><path d="M 0.703125 -6.390625 C 0.453125 -7.390625 0.679688 -8.191406 1.390625 -8.796875 C 2.109375 -9.410156 2.894531 -9.71875 3.75 -9.71875 C 4.394531 -9.71875 4.96875 -9.523438 5.46875 -9.140625 C 5.96875 -8.765625 6.34375 -8.203125 6.59375 -7.453125 C 6.8125 -6.816406 7.273438 -6.289062 7.984375 -5.875 C 8.703125 -5.46875 9.535156 -5.171875 10.484375 -4.984375 C 11.429688 -4.804688 12.390625 -4.71875 13.359375 -4.71875 C 15.296875 -4.71875 16.851562 -5.066406 18.03125 -5.765625 C 19.207031 -6.460938 19.796875 -7.347656 19.796875 -8.421875 C 19.796875 -9.171875 19.484375 -9.722656 18.859375 -10.078125 C 18.234375 -10.441406 17.410156 -10.691406 16.390625 -10.828125 C 15.367188 -10.972656 14.285156 -11.082031 13.140625 -11.15625 C 11.640625 -11.300781 10.164062 -11.476562 8.71875 -11.6875 C 7.269531 -11.90625 5.953125 -12.273438 4.765625 -12.796875 C 3.585938 -13.316406 2.640625 -14.085938 1.921875 -15.109375 C 1.210938 -16.128906 0.859375 -17.515625 0.859375 -19.265625 C 0.859375 -20.984375 1.359375 -22.484375 2.359375 -23.765625 C 3.359375 -25.054688 4.769531 -26.054688 6.59375 -26.765625 C 8.425781 -27.484375 10.539062 -27.84375 12.9375 -27.84375 C 14.332031 -27.84375 15.832031 -27.707031 17.4375 -27.4375 C 19.050781 -27.175781 20.546875 -26.632812 21.921875 -25.8125 C 23.296875 -24.988281 24.304688 -23.71875 24.953125 -22 C 25.203125 -21.28125 25.179688 -20.644531 24.890625 -20.09375 C 24.609375 -19.539062 24.1875 -19.117188 23.625 -18.828125 C 23.070312 -18.546875 22.515625 -18.40625 21.953125 -18.40625 C 21.304688 -18.40625 20.773438 -18.53125 20.359375 -18.78125 C 19.953125 -19.03125 19.601562 -19.457031 19.3125 -20.0625 C 18.988281 -20.8125 18.441406 -21.363281 17.671875 -21.71875 C 16.910156 -22.082031 16.085938 -22.304688 15.203125 -22.390625 C 14.328125 -22.484375 13.570312 -22.53125 12.9375 -22.53125 C 11.144531 -22.53125 9.703125 -22.226562 8.609375 -21.625 C 7.515625 -21.019531 6.96875 -20.210938 6.96875 -19.203125 C 6.96875 -18.347656 7.253906 -17.769531 7.828125 -17.46875 C 8.398438 -17.164062 9.175781 -16.984375 10.15625 -16.921875 C 11.144531 -16.867188 12.25 -16.773438 13.46875 -16.640625 C 14.96875 -16.453125 16.453125 -16.25 17.921875 -16.03125 C 19.390625 -15.820312 20.726562 -15.457031 21.9375 -14.9375 C 23.15625 -14.425781 24.125 -13.660156 24.84375 -12.640625 C 25.5625 -11.617188 25.921875 -10.210938 25.921875 -8.421875 C 25.921875 -6.671875 25.390625 -5.113281 24.328125 -3.75 C 23.273438 -2.394531 21.804688 -1.34375 19.921875 -0.59375 C 18.046875 0.15625 15.859375 0.53125 13.359375 0.53125 C 12.253906 0.53125 11.046875 0.445312 9.734375 0.28125 C 8.429688 0.125 7.160156 -0.191406 5.921875 -0.671875 C 4.691406 -1.148438 3.609375 -1.84375 2.671875 -2.75 C 1.742188 -3.664062 1.085938 -4.878906 0.703125 -6.390625 Z M 0.703125 -6.390625 "/></g></g></g><g fill="#ffffff" fill-opacity="1"><g transform="translate(153.800022, 225.777729)"><g><path d="M 3.4375 0.140625 C 2.5 0.140625 1.75 -0.0820312 1.1875 -0.53125 C 0.632812 -0.988281 0.390625 -1.632812 0.453125 -2.46875 L 1.21875 -2.46875 C 1.15625 -1.863281 1.320312 -1.382812 1.71875 -1.03125 C 2.125 -0.675781 2.71875 -0.5 3.5 -0.5 C 4.289062 -0.5 4.921875 -0.675781 5.390625 -1.03125 C 5.867188 -1.382812 6.109375 -1.84375 6.109375 -2.40625 C 6.109375 -2.75 6.007812 -3.03125 5.8125 -3.25 C 5.625 -3.476562 5.390625 -3.660156 5.109375 -3.796875 C 4.828125 -3.929688 4.4375 -4.085938 3.9375 -4.265625 C 3.375 -4.460938 2.914062 -4.648438 2.5625 -4.828125 C 2.207031 -5.003906 1.90625 -5.253906 1.65625 -5.578125 C 1.414062 -5.898438 1.296875 -6.304688 1.296875 -6.796875 C 1.296875 -7.285156 1.4375 -7.71875 1.71875 -8.09375 C 2 -8.46875 2.382812 -8.757812 2.875 -8.96875 C 3.375 -9.175781 3.929688 -9.28125 4.546875 -9.28125 C 5.390625 -9.28125 6.09375 -9.0625 6.65625 -8.625 C 7.21875 -8.195312 7.5 -7.628906 7.5 -6.921875 C 7.5 -6.773438 7.488281 -6.660156 7.46875 -6.578125 L 6.734375 -6.578125 C 6.742188 -6.640625 6.75 -6.726562 6.75 -6.84375 C 6.75 -7.382812 6.53125 -7.820312 6.09375 -8.15625 C 5.664062 -8.488281 5.125 -8.65625 4.46875 -8.65625 C 3.769531 -8.65625 3.191406 -8.488281 2.734375 -8.15625 C 2.285156 -7.820312 2.0625 -7.375 2.0625 -6.8125 C 2.0625 -6.445312 2.160156 -6.140625 2.359375 -5.890625 C 2.566406 -5.648438 2.816406 -5.457031 3.109375 -5.3125 C 3.410156 -5.175781 3.8125 -5.019531 4.3125 -4.84375 C 4.875 -4.65625 5.320312 -4.472656 5.65625 -4.296875 C 5.988281 -4.128906 6.273438 -3.894531 6.515625 -3.59375 C 6.753906 -3.289062 6.875 -2.90625 6.875 -2.4375 C 6.875 -1.644531 6.554688 -1.015625 5.921875 -0.546875 C 5.285156 -0.0859375 4.457031 0.140625 3.4375 0.140625 Z M 3.4375 0.140625 "/></g></g></g><g fill="#ffffff" fill-opacity="1"><g transform="translate(161.545383, 225.777729)"><g><path d="M 4.609375 0.140625 C 3.460938 0.140625 2.539062 -0.191406 1.84375 -0.859375 C 1.15625 -1.523438 0.8125 -2.425781 0.8125 -3.5625 C 0.8125 -4.59375 1.039062 -5.546875 1.5 -6.421875 C 1.96875 -7.304688 2.617188 -8.003906 3.453125 -8.515625 C 4.285156 -9.023438 5.21875 -9.28125 6.25 -9.28125 C 6.988281 -9.28125 7.644531 -9.128906 8.21875 -8.828125 C 8.789062 -8.535156 9.238281 -8.109375 9.5625 -7.546875 C 9.882812 -6.992188 10.046875 -6.335938 10.046875 -5.578125 C 10.046875 -4.546875 9.804688 -3.59375 9.328125 -2.71875 C 8.859375 -1.84375 8.207031 -1.144531 7.375 -0.625 C 6.550781 -0.113281 5.628906 0.140625 4.609375 0.140625 Z M 4.703125 -0.515625 C 5.585938 -0.515625 6.375 -0.742188 7.0625 -1.203125 C 7.75 -1.671875 8.285156 -2.285156 8.671875 -3.046875 C 9.066406 -3.816406 9.265625 -4.648438 9.265625 -5.546875 C 9.265625 -6.546875 8.960938 -7.3125 8.359375 -7.84375 C 7.765625 -8.375 7.019531 -8.640625 6.125 -8.640625 C 5.238281 -8.640625 4.453125 -8.40625 3.765625 -7.9375 C 3.078125 -7.476562 2.539062 -6.863281 2.15625 -6.09375 C 1.78125 -5.320312 1.59375 -4.492188 1.59375 -3.609375 C 1.59375 -2.609375 1.882812 -1.84375 2.46875 -1.3125 C 3.0625 -0.78125 3.804688 -0.515625 4.703125 -0.515625 Z M 4.703125 -0.515625 "/></g></g></g><g fill="#ffffff" fill-opacity="1"><g transform="translate(171.788246, 225.777729)"><g><path d="M 3.53125 -12.484375 L 1.3125 0 L 0.5625 0 L 2.765625 -12.484375 Z M 3.53125 -12.484375 "/></g></g></g><g fill="#ffffff" fill-opacity="1"><g transform="translate(174.690469, 225.777729)"><g><path d="M 9.921875 -9.15625 L 8.296875 0 L 7.546875 0 L 7.890625 -1.96875 C 7.515625 -1.28125 6.992188 -0.753906 6.328125 -0.390625 C 5.660156 -0.0234375 4.941406 0.15625 4.171875 0.15625 C 3.234375 0.15625 2.476562 -0.09375 1.90625 -0.59375 C 1.34375 -1.09375 1.0625 -1.835938 1.0625 -2.828125 C 1.0625 -3.203125 1.085938 -3.535156 1.140625 -3.828125 L 2.109375 -9.15625 L 2.859375 -9.15625 L 1.90625 -3.875 C 1.851562 -3.519531 1.828125 -3.226562 1.828125 -3 C 1.828125 -2.175781 2.050781 -1.550781 2.5 -1.125 C 2.945312 -0.707031 3.578125 -0.5 4.390625 -0.5 C 5.378906 -0.5 6.222656 -0.816406 6.921875 -1.453125 C 7.628906 -2.085938 8.082031 -3.019531 8.28125 -4.25 L 8.28125 -4.203125 L 9.15625 -9.15625 Z M 9.921875 -9.15625 "/></g></g></g><g fill="#ffffff" fill-opacity="1"><g transform="translate(184.562073, 225.777729)"><g><path d="M 2.125 -2.453125 C 2.082031 -2.222656 2.0625 -1.992188 2.0625 -1.765625 C 2.0625 -1.367188 2.171875 -1.085938 2.390625 -0.921875 C 2.617188 -0.753906 2.992188 -0.671875 3.515625 -0.671875 L 4.515625 -0.671875 L 4.40625 0 L 3.25 0 C 2.582031 0 2.085938 -0.128906 1.765625 -0.390625 C 1.441406 -0.648438 1.28125 -1.078125 1.28125 -1.671875 C 1.28125 -1.929688 1.300781 -2.191406 1.34375 -2.453125 L 2.4375 -8.5 L 1.046875 -8.5 L 1.171875 -9.15625 L 2.546875 -9.15625 L 2.953125 -11.484375 L 3.734375 -11.484375 L 3.328125 -9.15625 L 6.03125 -9.15625 L 5.90625 -8.5 L 3.203125 -8.5 Z M 2.125 -2.453125 "/></g></g></g><g fill="#ffffff" fill-opacity="1"><g transform="translate(189.776173, 225.777729)"><g><path d="M 2.921875 -11.203125 C 2.765625 -11.203125 2.632812 -11.25 2.53125 -11.34375 C 2.425781 -11.4375 2.375 -11.566406 2.375 -11.734375 C 2.375 -11.953125 2.453125 -12.132812 2.609375 -12.28125 C 2.773438 -12.4375 2.957031 -12.515625 3.15625 -12.515625 C 3.3125 -12.515625 3.441406 -12.460938 3.546875 -12.359375 C 3.660156 -12.265625 3.71875 -12.140625 3.71875 -11.984375 C 3.71875 -11.753906 3.632812 -11.566406 3.46875 -11.421875 C 3.300781 -11.273438 3.117188 -11.203125 2.921875 -11.203125 Z M 2.953125 -9.15625 L 1.3125 0 L 0.5625 0 L 2.1875 -9.15625 Z M 2.953125 -9.15625 "/></g></g></g><g fill="#ffffff" fill-opacity="1"><g transform="translate(192.678394, 225.777729)"><g><path d="M 4.609375 0.140625 C 3.460938 0.140625 2.539062 -0.191406 1.84375 -0.859375 C 1.15625 -1.523438 0.8125 -2.425781 0.8125 -3.5625 C 0.8125 -4.59375 1.039062 -5.546875 1.5 -6.421875 C 1.96875 -7.304688 2.617188 -8.003906 3.453125 -8.515625 C 4.285156 -9.023438 5.21875 -9.28125 6.25 -9.28125 C 6.988281 -9.28125 7.644531 -9.128906 8.21875 -8.828125 C 8.789062 -8.535156 9.238281 -8.109375 9.5625 -7.546875 C 9.882812 -6.992188 10.046875 -6.335938 10.046875 -5.578125 C 10.046875 -4.546875 9.804688 -3.59375 9.328125 -2.71875 C 8.859375 -1.84375 8.207031 -1.144531 7.375 -0.625 C 6.550781 -0.113281 5.628906 0.140625 4.609375 0.140625 Z M 4.703125 -0.515625 C 5.585938 -0.515625 6.375 -0.742188 7.0625 -1.203125 C 7.75 -1.671875 8.285156 -2.285156 8.671875 -3.046875 C 9.066406 -3.816406 9.265625 -4.648438 9.265625 -5.546875 C 9.265625 -6.546875 8.960938 -7.3125 8.359375 -7.84375 C 7.765625 -8.375 7.019531 -8.640625 6.125 -8.640625 C 5.238281 -8.640625 4.453125 -8.40625 3.765625 -7.9375 C 3.078125 -7.476562 2.539062 -6.863281 2.15625 -6.09375 C 1.78125 -5.320312 1.59375 -4.492188 1.59375 -3.609375 C 1.59375 -2.609375 1.882812 -1.84375 2.46875 -1.3125 C 3.0625 -0.78125 3.804688 -0.515625 4.703125 -0.515625 Z M 4.703125 -0.515625 "/></g></g></g><g fill="#ffffff" fill-opacity="1"><g transform="translate(202.921259, 225.777729)"><g><path d="M 6.34375 -9.34375 C 7.28125 -9.34375 8.03125 -9.09375 8.59375 -8.59375 C 9.15625 -8.09375 9.4375 -7.351562 9.4375 -6.375 C 9.4375 -6.070312 9.398438 -5.734375 9.328125 -5.359375 L 8.390625 0 L 7.640625 0 L 8.59375 -5.3125 C 8.644531 -5.675781 8.671875 -5.972656 8.671875 -6.203125 C 8.671875 -7.015625 8.445312 -7.628906 8 -8.046875 C 7.550781 -8.472656 6.921875 -8.6875 6.109375 -8.6875 C 5.160156 -8.6875 4.34375 -8.394531 3.65625 -7.8125 C 2.96875 -7.226562 2.5 -6.367188 2.25 -5.234375 L 1.3125 0 L 0.5625 0 L 2.1875 -9.15625 L 2.953125 -9.15625 L 2.609375 -7.234375 C 2.992188 -7.921875 3.515625 -8.441406 4.171875 -8.796875 C 4.828125 -9.160156 5.550781 -9.34375 6.34375 -9.34375 Z M 6.34375 -9.34375 "/></g></g></g><g fill="#ffffff" fill-opacity="1"><g transform="translate(212.792863, 225.777729)"><g><path d="M 3.4375 0.140625 C 2.5 0.140625 1.75 -0.0820312 1.1875 -0.53125 C 0.632812 -0.988281 0.390625 -1.632812 0.453125 -2.46875 L 1.21875 -2.46875 C 1.15625 -1.863281 1.320312 -1.382812 1.71875 -1.03125 C 2.125 -0.675781 2.71875 -0.5 3.5 -0.5 C 4.289062 -0.5 4.921875 -0.675781 5.390625 -1.03125 C 5.867188 -1.382812 6.109375 -1.84375 6.109375 -2.40625 C 6.109375 -2.75 6.007812 -3.03125 5.8125 -3.25 C 5.625 -3.476562 5.390625 -3.660156 5.109375 -3.796875 C 4.828125 -3.929688 4.4375 -4.085938 3.9375 -4.265625 C 3.375 -4.460938 2.914062 -4.648438 2.5625 -4.828125 C 2.207031 -5.003906 1.90625 -5.253906 1.65625 -5.578125 C 1.414062 -5.898438 1.296875 -6.304688 1.296875 -6.796875 C 1.296875 -7.285156 1.4375 -7.71875 1.71875 -8.09375 C 2 -8.46875 2.382812 -8.757812 2.875 -8.96875 C 3.375 -9.175781 3.929688 -9.28125 4.546875 -9.28125 C 5.390625 -9.28125 6.09375 -9.0625 6.65625 -8.625 C 7.21875 -8.195312 7.5 -7.628906 7.5 -6.921875 C 7.5 -6.773438 7.488281 -6.660156 7.46875 -6.578125 L 6.734375 -6.578125 C 6.742188 -6.640625 6.75 -6.726562 6.75 -6.84375 C 6.75 -7.382812 6.53125 -7.820312 6.09375 -8.15625 C 5.664062 -8.488281 5.125 -8.65625 4.46875 -8.65625 C 3.769531 -8.65625 3.191406 -8.488281 2.734375 -8.15625 C 2.285156 -7.820312 2.0625 -7.375 2.0625 -6.8125 C 2.0625 -6.445312 2.160156 -6.140625 2.359375 -5.890625 C 2.566406 -5.648438 2.816406 -5.457031 3.109375 -5.3125 C 3.410156 -5.175781 3.8125 -5.019531 4.3125 -4.84375 C 4.875 -4.65625 5.320312 -4.472656 5.65625 -4.296875 C 5.988281 -4.128906 6.273438 -3.894531 6.515625 -3.59375 C 6.753906 -3.289062 6.875 -2.90625 6.875 -2.4375 C 6.875 -1.644531 6.554688 -1.015625 5.921875 -0.546875 C 5.285156 -0.0859375 4.457031 0.140625 3.4375 0.140625 Z M 3.4375 0.140625 "/></g></g></g></svg>
