<!-- <svg width="258" height="91" viewBox="0 0 258 91" fill="none" xmlns="http://www.w3.org/2000/svg">
<g clip-path="url(#clip0_2524_2362)">
<path d="M102.852 23.0666C106.624 23.0666 109.899 23.6884 112.677 24.9321C115.496 26.1757 117.651 27.9582 119.144 30.2797C120.636 32.6012 121.382 35.3578 121.382 38.5499C121.382 41.7004 120.636 44.4572 119.144 46.8201C117.651 49.1416 115.496 50.9241 112.677 52.1677C109.899 53.4113 106.624 54.0331 102.852 54.0331H93.0273V66.5939H84.9436V23.0666H102.852ZM102.479 47.1931C106.002 47.1931 108.676 46.447 110.5 44.9546C112.324 43.4622 113.236 41.3273 113.236 38.5499C113.236 35.7725 112.324 33.6375 110.5 32.1452C108.676 30.6528 106.002 29.9066 102.479 29.9066H93.0273V47.1931H102.479ZM133.546 23.0666H141.629V59.7539H164.388V66.5939H133.546V23.0666ZM203.395 56.5204H181.631L177.34 66.5939H169.008L188.595 23.0666H196.555L216.204 66.5939H207.747L203.395 56.5204ZM200.721 50.1779L192.513 31.1503L184.367 50.1779H200.721ZM241.998 51.235V66.5939H233.914V51.3593L216.814 23.0666H225.458L238.205 44.2706L251.077 23.0666H259.036L241.998 51.235Z" fill="white"/>
<path d="M32.8717 77.5575C50.9464 77.5575 65.5989 62.905 65.5989 44.8302C65.5989 26.7555 50.9464 12.103 32.8717 12.103C14.7969 12.103 0.144409 26.7555 0.144409 44.8302C0.144409 62.905 14.7969 77.5575 32.8717 77.5575Z" fill="white"/>
<path d="M51.8019 67.0049L25.399 32.0522H19.8078V58.6276H24.2807V37.7327L48.2906 69.7097C49.5218 68.8859 50.6946 67.9815 51.8019 67.0049Z" fill="url(#paint0_linear_2524_2362)"/>
<path d="M46.7635 32.0522H42.3324V58.6387H46.7635V32.0522Z" fill="url(#paint1_linear_2524_2362)"/>
</g>
<defs>
<linearGradient id="paint0_linear_2524_2362" x1="34.9514" y1="48.1863" x2="49.8194" y2="66.9607" gradientUnits="userSpaceOnUse">
<stop stop-color="#3056D3"/>
<stop offset="1" stop-color="white" stop-opacity="0"/>
</linearGradient>
<linearGradient id="paint1_linear_2524_2362" x1="44.5481" y1="32.0522" x2="44.4738" y2="51.5767" gradientUnits="userSpaceOnUse">
<stop stop-color="#3056D3"/>
<stop offset="1" stop-color="white" stop-opacity="0"/>
</linearGradient>
<clipPath id="clip0_2524_2362">
<rect width="256.909" height="90" fill="white" transform="translate(0.144409 0.648438)"/>
</clipPath>
</defs>
</svg>  -->

<!-- new logo -->
<svg xmlns="http://www.w3.org/2000/svg" xmlns:xlink="http://www.w3.org/1999/xlink" width="500" zoomAndPan="magnify" viewBox="0 0 375 374.999991" height="500" preserveAspectRatio="xMidYMid meet" version="1.0"><defs><g/><clipPath id="52fa3ae36a"><path d="M 287 77 L 339 77 L 339 130 L 287 130 Z M 287 77 " clip-rule="nonzero"/></clipPath><clipPath id="ae3105c25d"><path d="M 277.398438 85.808594 L 313.199219 52.71875 L 363.085938 106.695312 L 327.285156 139.785156 Z M 277.398438 85.808594 " clip-rule="nonzero"/></clipPath><clipPath id="d11969af9c"><path d="M 277.398438 85.808594 L 313.199219 52.71875 L 363.085938 106.695312 L 327.285156 139.785156 Z M 277.398438 85.808594 " clip-rule="nonzero"/></clipPath><clipPath id="12c4eb6371"><path d="M 313 55 L 365 55 L 365 107 L 313 107 Z M 313 55 " clip-rule="nonzero"/></clipPath><clipPath id="8cf860915d"><path d="M 302.746094 63.234375 L 338.546875 30.144531 L 388.4375 84.121094 L 352.636719 117.210938 Z M 302.746094 63.234375 " clip-rule="nonzero"/></clipPath><clipPath id="d08773d047"><path d="M 302.746094 63.234375 L 338.546875 30.144531 L 388.4375 84.121094 L 352.636719 117.210938 Z M 302.746094 63.234375 " clip-rule="nonzero"/></clipPath></defs><g clip-path="url(#52fa3ae36a)"><g clip-path="url(#ae3105c25d)"><g clip-path="url(#d11969af9c)"><path fill="#38b6ff" d="M 338.683594 79.824219 L 294.859375 77.878906 C 286.394531 77.503906 284.964844 93.992188 294.992188 94.261719 L 322.261719 95.003906 L 320.179688 122.441406 C 319.546875 130.796875 335.84375 131.679688 336.308594 123.1875 Z M 338.683594 79.824219 " fill-opacity="1" fill-rule="nonzero"/></g></g></g><g clip-path="url(#12c4eb6371)"><g clip-path="url(#8cf860915d)"><g clip-path="url(#d08773d047)"><path fill="#5271ff" d="M 364.03125 57.25 L 320.207031 55.304688 C 311.742188 54.925781 310.3125 71.417969 320.34375 71.6875 L 347.613281 72.425781 L 345.53125 99.867188 C 344.894531 108.222656 361.191406 109.105469 361.65625 100.613281 Z M 364.03125 57.25 " fill-opacity="1" fill-rule="nonzero"/></g></g></g><g fill="#ffffff" fill-opacity="1"><g transform="translate(1.902978, 182.524509)"><g><path d="M 65.1875 -71.34375 C 67.613281 -71.34375 69.550781 -70.664062 71 -69.3125 C 72.445312 -67.957031 73.171875 -66.207031 73.171875 -64.0625 L 73.171875 -7.28125 C 73.171875 -5.132812 72.445312 -3.382812 71 -2.03125 C 69.550781 -0.675781 67.613281 0 65.1875 0 C 62.84375 0 61.015625 -0.535156 59.703125 -1.609375 C 58.398438 -2.679688 57.609375 -4.109375 57.328125 -5.890625 C 54.148438 -3.367188 50.597656 -1.519531 46.671875 -0.34375 C 42.753906 0.820312 39.019531 1.40625 35.46875 1.40625 C 28.738281 1.40625 22.921875 -0.132812 18.015625 -3.21875 C 13.109375 -6.300781 9.34375 -10.644531 6.71875 -16.25 C 4.101562 -21.863281 2.796875 -28.410156 2.796875 -35.890625 C 2.796875 -43.171875 4.242188 -49.566406 7.140625 -55.078125 C 10.046875 -60.597656 14.085938 -64.921875 19.265625 -68.046875 C 24.453125 -71.179688 30.457031 -72.75 37.28125 -72.75 C 40.269531 -72.75 43.585938 -72.1875 47.234375 -71.0625 C 50.878906 -69.945312 54.242188 -68.171875 57.328125 -65.734375 C 57.703125 -67.421875 58.539062 -68.773438 59.84375 -69.796875 C 61.15625 -70.828125 62.9375 -71.34375 65.1875 -71.34375 Z M 37.140625 -12.75 C 41.253906 -12.75 45.226562 -13.660156 49.0625 -15.484375 C 52.894531 -17.304688 55.601562 -19.992188 57.1875 -23.546875 L 57.1875 -47.796875 C 55.414062 -51.253906 52.753906 -53.914062 49.203125 -55.78125 C 45.648438 -57.65625 42.050781 -58.59375 38.40625 -58.59375 C 32.519531 -58.59375 27.773438 -56.441406 24.171875 -52.140625 C 20.578125 -47.847656 18.78125 -42.382812 18.78125 -35.75 C 18.78125 -28.832031 20.460938 -23.269531 23.828125 -19.0625 C 27.191406 -14.851562 31.628906 -12.75 37.140625 -12.75 Z M 37.140625 -12.75 "/></g></g></g><g fill="#ffffff" fill-opacity="1"><g transform="translate(82.918455, 182.524509)"><g><path d="M 3.21875 -60.828125 C 2.382812 -62.796875 2.316406 -64.570312 3.015625 -66.15625 C 3.710938 -67.75 4.804688 -69.007812 6.296875 -69.9375 C 7.796875 -70.875 9.34375 -71.34375 10.9375 -71.34375 C 12.519531 -71.34375 14.007812 -70.851562 15.40625 -69.875 C 16.8125 -68.894531 17.75 -67.796875 18.21875 -66.578125 L 36.4375 -24.953125 L 53.96875 -60.96875 C 54.625 -62.5625 55.601562 -63.753906 56.90625 -64.546875 C 58.21875 -65.335938 59.664062 -65.734375 61.25 -65.734375 C 64.707031 -65.734375 67.1875 -64.191406 68.6875 -61.109375 L 86.34375 -24.671875 L 104.421875 -66.296875 C 105.921875 -69.660156 108.445312 -71.34375 112 -71.34375 C 114.425781 -71.34375 116.503906 -70.335938 118.234375 -68.328125 C 119.960938 -66.316406 120.21875 -63.863281 119 -60.96875 L 94.203125 -2.65625 C 93.171875 0.0507812 90.785156 1.40625 87.046875 1.40625 C 85.453125 1.40625 83.976562 1.097656 82.625 0.484375 C 81.269531 -0.117188 80.222656 -1.117188 79.484375 -2.515625 L 61.53125 -40.515625 L 43.171875 -2.65625 C 41.859375 0.0507812 39.335938 1.40625 35.609375 1.40625 C 34.015625 1.40625 32.609375 1.097656 31.390625 0.484375 C 30.179688 -0.117188 29.203125 -1.210938 28.453125 -2.796875 Z M 3.21875 -60.828125 "/></g></g></g><g fill="#ffffff" fill-opacity="1"><g transform="translate(205.002669, 182.524509)"><g><path d="M 21.03125 -81.859375 C 21.03125 -79.523438 20.164062 -77.773438 18.4375 -76.609375 C 16.707031 -75.441406 14.859375 -74.859375 12.890625 -74.859375 C 10.835938 -74.859375 8.96875 -75.441406 7.28125 -76.609375 C 5.601562 -77.773438 4.765625 -79.523438 4.765625 -81.859375 L 4.765625 -83.6875 C 4.765625 -86.113281 5.601562 -87.882812 7.28125 -89 C 8.96875 -90.125 10.835938 -90.6875 12.890625 -90.6875 C 14.859375 -90.6875 16.707031 -90.125 18.4375 -89 C 20.164062 -87.882812 21.03125 -86.113281 21.03125 -83.6875 Z M 4.90625 -64.484375 C 4.90625 -66.722656 5.769531 -68.425781 7.5 -69.59375 C 9.226562 -70.757812 11.023438 -71.34375 12.890625 -71.34375 C 14.859375 -71.34375 16.679688 -70.757812 18.359375 -69.59375 C 20.046875 -68.425781 20.890625 -66.769531 20.890625 -64.625 L 20.890625 -6.875 C 20.890625 -4.53125 20.046875 -2.796875 18.359375 -1.671875 C 16.679688 -0.554688 14.859375 0 12.890625 0 C 11.023438 0 9.226562 -0.554688 7.5 -1.671875 C 5.769531 -2.796875 4.90625 -4.53125 4.90625 -6.875 Z M 4.90625 -64.484375 "/></g></g></g><g fill="#ffffff" fill-opacity="1"><g transform="translate(227.989298, 182.524509)"><g><path d="M 1.828125 -16.6875 C 1.171875 -19.300781 1.773438 -21.398438 3.640625 -22.984375 C 5.515625 -24.578125 7.570312 -25.375 9.8125 -25.375 C 11.488281 -25.375 12.984375 -24.878906 14.296875 -23.890625 C 15.609375 -22.910156 16.585938 -21.441406 17.234375 -19.484375 C 17.796875 -17.796875 19.007812 -16.414062 20.875 -15.34375 C 22.75 -14.269531 24.925781 -13.5 27.40625 -13.03125 C 29.882812 -12.5625 32.382812 -12.328125 34.90625 -12.328125 C 39.945312 -12.328125 44.007812 -13.238281 47.09375 -15.0625 C 50.175781 -16.882812 51.71875 -19.195312 51.71875 -22 C 51.71875 -23.96875 50.898438 -25.414062 49.265625 -26.34375 C 47.628906 -27.28125 45.476562 -27.9375 42.8125 -28.3125 C 40.15625 -28.6875 37.332031 -28.96875 34.34375 -29.15625 C 30.414062 -29.53125 26.554688 -30 22.765625 -30.5625 C 18.984375 -31.125 15.550781 -32.082031 12.46875 -33.4375 C 9.382812 -34.789062 6.910156 -36.796875 5.046875 -39.453125 C 3.179688 -42.117188 2.25 -45.742188 2.25 -50.328125 C 2.25 -54.804688 3.554688 -58.726562 6.171875 -62.09375 C 8.785156 -65.457031 12.472656 -68.070312 17.234375 -69.9375 C 22.003906 -71.8125 27.519531 -72.75 33.78125 -72.75 C 37.425781 -72.75 41.347656 -72.394531 45.546875 -71.6875 C 49.753906 -70.988281 53.65625 -69.566406 57.25 -67.421875 C 60.851562 -65.273438 63.5 -61.957031 65.1875 -57.46875 C 65.832031 -55.601562 65.78125 -53.945312 65.03125 -52.5 C 64.289062 -51.050781 63.195312 -49.953125 61.75 -49.203125 C 60.300781 -48.453125 58.828125 -48.078125 57.328125 -48.078125 C 55.648438 -48.078125 54.269531 -48.40625 53.1875 -49.0625 C 52.113281 -49.71875 51.207031 -50.835938 50.46875 -52.421875 C 49.625 -54.390625 48.195312 -55.835938 46.1875 -56.765625 C 44.175781 -57.703125 42.023438 -58.285156 39.734375 -58.515625 C 37.441406 -58.753906 35.457031 -58.875 33.78125 -58.875 C 29.101562 -58.875 25.335938 -58.078125 22.484375 -56.484375 C 19.640625 -54.898438 18.21875 -52.800781 18.21875 -50.1875 C 18.21875 -47.9375 18.960938 -46.414062 20.453125 -45.625 C 21.953125 -44.832031 23.988281 -44.363281 26.5625 -44.21875 C 29.132812 -44.082031 32.007812 -43.828125 35.1875 -43.453125 C 39.113281 -42.984375 42.988281 -42.46875 46.8125 -41.90625 C 50.644531 -41.351562 54.148438 -40.394531 57.328125 -39.03125 C 60.503906 -37.675781 63.023438 -35.664062 64.890625 -33 C 66.765625 -30.34375 67.703125 -26.675781 67.703125 -22 C 67.703125 -17.425781 66.320312 -13.363281 63.5625 -9.8125 C 60.8125 -6.257812 56.984375 -3.5 52.078125 -1.53125 C 47.171875 0.425781 41.445312 1.40625 34.90625 1.40625 C 32.007812 1.40625 28.851562 1.191406 25.4375 0.765625 C 22.03125 0.347656 18.710938 -0.488281 15.484375 -1.75 C 12.265625 -3.007812 9.4375 -4.832031 7 -7.21875 C 4.570312 -9.601562 2.847656 -12.757812 1.828125 -16.6875 Z M 1.828125 -16.6875 "/></g></g></g><g fill="#ffffff" fill-opacity="1"><g transform="translate(51.152954, 234.7125)"><g><path d="M 10.359375 0.40625 C 7.515625 0.40625 5.253906 -0.269531 3.578125 -1.625 C 1.898438 -2.976562 1.164062 -4.90625 1.375 -7.40625 L 3.65625 -7.40625 C 3.488281 -5.613281 4.003906 -4.179688 5.203125 -3.109375 C 6.398438 -2.046875 8.171875 -1.515625 10.515625 -1.515625 C 12.910156 -1.515625 14.816406 -2.046875 16.234375 -3.109375 C 17.660156 -4.179688 18.375 -5.566406 18.375 -7.265625 C 18.375 -8.273438 18.085938 -9.117188 17.515625 -9.796875 C 16.941406 -10.472656 16.226562 -11.015625 15.375 -11.421875 C 14.53125 -11.828125 13.347656 -12.300781 11.828125 -12.84375 C 10.140625 -13.414062 8.757812 -13.972656 7.6875 -14.515625 C 6.625 -15.054688 5.726562 -15.804688 5 -16.765625 C 4.269531 -17.734375 3.90625 -18.960938 3.90625 -20.453125 C 3.90625 -21.910156 4.328125 -23.207031 5.171875 -24.34375 C 6.023438 -25.476562 7.195312 -26.359375 8.6875 -26.984375 C 10.175781 -27.609375 11.832031 -27.921875 13.65625 -27.921875 C 16.195312 -27.921875 18.3125 -27.269531 20 -25.96875 C 21.695312 -24.664062 22.546875 -22.945312 22.546875 -20.8125 C 22.546875 -20.375 22.523438 -20.035156 22.484375 -19.796875 L 20.25 -19.796875 C 20.289062 -19.960938 20.3125 -20.234375 20.3125 -20.609375 C 20.3125 -22.234375 19.65625 -23.546875 18.34375 -24.546875 C 17.039062 -25.546875 15.410156 -26.046875 13.453125 -26.046875 C 11.359375 -26.046875 9.625 -25.546875 8.25 -24.546875 C 6.875 -23.546875 6.1875 -22.203125 6.1875 -20.515625 C 6.1875 -19.390625 6.488281 -18.460938 7.09375 -17.734375 C 7.707031 -17.015625 8.460938 -16.441406 9.359375 -16.015625 C 10.265625 -15.585938 11.476562 -15.101562 13 -14.5625 C 14.6875 -13.988281 16.03125 -13.445312 17.03125 -12.9375 C 18.03125 -12.4375 18.882812 -11.726562 19.59375 -10.8125 C 20.300781 -9.894531 20.65625 -8.726562 20.65625 -7.3125 C 20.65625 -4.9375 19.695312 -3.054688 17.78125 -1.671875 C 15.875 -0.285156 13.398438 0.40625 10.359375 0.40625 Z M 10.359375 0.40625 "/></g></g></g><g fill="#ffffff" fill-opacity="1"><g transform="translate(74.441248, 234.7125)"><g><path d="M 13.859375 0.40625 C 10.410156 0.40625 7.644531 -0.585938 5.5625 -2.578125 C 3.476562 -4.578125 2.4375 -7.289062 2.4375 -10.71875 C 2.4375 -13.820312 3.140625 -16.691406 4.546875 -19.328125 C 5.953125 -21.972656 7.90625 -24.066406 10.40625 -25.609375 C 12.90625 -27.148438 15.695312 -27.921875 18.78125 -27.921875 C 21.019531 -27.921875 23 -27.472656 24.71875 -26.578125 C 26.445312 -25.679688 27.789062 -24.394531 28.75 -22.71875 C 29.71875 -21.039062 30.203125 -19.066406 30.203125 -16.796875 C 30.203125 -13.691406 29.488281 -10.816406 28.0625 -8.171875 C 26.644531 -5.535156 24.691406 -3.445312 22.203125 -1.90625 C 19.722656 -0.363281 16.941406 0.40625 13.859375 0.40625 Z M 14.15625 -1.578125 C 16.800781 -1.578125 19.164062 -2.269531 21.25 -3.65625 C 23.332031 -5.039062 24.957031 -6.882812 26.125 -9.1875 C 27.289062 -11.488281 27.875 -13.992188 27.875 -16.703125 C 27.875 -19.710938 26.972656 -22.007812 25.171875 -23.59375 C 23.378906 -25.1875 21.128906 -25.984375 18.421875 -25.984375 C 15.753906 -25.984375 13.382812 -25.289062 11.3125 -23.90625 C 9.25 -22.519531 7.640625 -20.664062 6.484375 -18.34375 C 5.335938 -16.03125 4.765625 -13.535156 4.765625 -10.859375 C 4.765625 -7.847656 5.65625 -5.546875 7.4375 -3.953125 C 9.21875 -2.367188 11.457031 -1.578125 14.15625 -1.578125 Z M 14.15625 -1.578125 "/></g></g></g><g fill="#ffffff" fill-opacity="1"><g transform="translate(105.238955, 234.7125)"><g><path d="M 10.609375 -37.5625 L 3.953125 0 L 1.671875 0 L 8.328125 -37.5625 Z M 10.609375 -37.5625 "/></g></g></g><g fill="#ffffff" fill-opacity="1"><g transform="translate(113.965091, 234.7125)"><g><path d="M 29.84375 -27.5625 L 24.984375 0 L 22.6875 0 L 23.765625 -5.9375 C 22.609375 -3.875 21.03125 -2.289062 19.03125 -1.1875 C 17.039062 -0.09375 14.878906 0.453125 12.546875 0.453125 C 9.734375 0.453125 7.472656 -0.296875 5.765625 -1.796875 C 4.054688 -3.304688 3.203125 -5.550781 3.203125 -8.53125 C 3.203125 -9.644531 3.285156 -10.644531 3.453125 -11.53125 L 6.34375 -27.5625 L 8.578125 -27.5625 L 5.734375 -11.671875 C 5.566406 -10.585938 5.484375 -9.707031 5.484375 -9.03125 C 5.484375 -6.5625 6.160156 -4.691406 7.515625 -3.421875 C 8.867188 -2.148438 10.765625 -1.515625 13.203125 -1.515625 C 16.179688 -1.515625 18.726562 -2.472656 20.84375 -4.390625 C 22.957031 -6.304688 24.316406 -9.109375 24.921875 -12.796875 L 24.921875 -12.640625 L 27.5625 -27.5625 Z M 29.84375 -27.5625 "/></g></g></g><g fill="#ffffff" fill-opacity="1"><g transform="translate(143.64652, 234.7125)"><g><path d="M 6.390625 -7.359375 C 6.253906 -6.679688 6.1875 -6.003906 6.1875 -5.328125 C 6.1875 -4.109375 6.523438 -3.253906 7.203125 -2.765625 C 7.878906 -2.273438 9 -2.03125 10.5625 -2.03125 L 13.609375 -2.03125 L 13.25 0 L 9.796875 0 C 7.765625 0 6.265625 -0.382812 5.296875 -1.15625 C 4.335938 -1.9375 3.859375 -3.226562 3.859375 -5.03125 C 3.859375 -5.800781 3.925781 -6.578125 4.0625 -7.359375 L 7.3125 -25.578125 L 3.140625 -25.578125 L 3.5 -27.5625 L 7.671875 -27.5625 L 8.890625 -34.578125 L 11.21875 -34.578125 L 10 -27.5625 L 18.125 -27.5625 L 17.765625 -25.578125 L 9.640625 -25.578125 Z M 6.390625 -7.359375 "/></g></g></g><g fill="#ffffff" fill-opacity="1"><g transform="translate(159.323913, 234.7125)"><g><path d="M 8.78125 -33.703125 C 8.3125 -33.703125 7.921875 -33.847656 7.609375 -34.140625 C 7.304688 -34.429688 7.15625 -34.8125 7.15625 -35.28125 C 7.15625 -35.957031 7.390625 -36.523438 7.859375 -36.984375 C 8.335938 -37.441406 8.882812 -37.671875 9.5 -37.671875 C 9.96875 -37.671875 10.363281 -37.515625 10.6875 -37.203125 C 11.007812 -36.898438 11.171875 -36.515625 11.171875 -36.046875 C 11.171875 -35.367188 10.925781 -34.804688 10.4375 -34.359375 C 9.945312 -33.921875 9.394531 -33.703125 8.78125 -33.703125 Z M 8.890625 -27.5625 L 3.953125 0 L 1.671875 0 L 6.59375 -27.5625 Z M 8.890625 -27.5625 "/></g></g></g><g fill="#ffffff" fill-opacity="1"><g transform="translate(168.05005, 234.7125)"><g><path d="M 13.859375 0.40625 C 10.410156 0.40625 7.644531 -0.585938 5.5625 -2.578125 C 3.476562 -4.578125 2.4375 -7.289062 2.4375 -10.71875 C 2.4375 -13.820312 3.140625 -16.691406 4.546875 -19.328125 C 5.953125 -21.972656 7.90625 -24.066406 10.40625 -25.609375 C 12.90625 -27.148438 15.695312 -27.921875 18.78125 -27.921875 C 21.019531 -27.921875 23 -27.472656 24.71875 -26.578125 C 26.445312 -25.679688 27.789062 -24.394531 28.75 -22.71875 C 29.71875 -21.039062 30.203125 -19.066406 30.203125 -16.796875 C 30.203125 -13.691406 29.488281 -10.816406 28.0625 -8.171875 C 26.644531 -5.535156 24.691406 -3.445312 22.203125 -1.90625 C 19.722656 -0.363281 16.941406 0.40625 13.859375 0.40625 Z M 14.15625 -1.578125 C 16.800781 -1.578125 19.164062 -2.269531 21.25 -3.65625 C 23.332031 -5.039062 24.957031 -6.882812 26.125 -9.1875 C 27.289062 -11.488281 27.875 -13.992188 27.875 -16.703125 C 27.875 -19.710938 26.972656 -22.007812 25.171875 -23.59375 C 23.378906 -25.1875 21.128906 -25.984375 18.421875 -25.984375 C 15.753906 -25.984375 13.382812 -25.289062 11.3125 -23.90625 C 9.25 -22.519531 7.640625 -20.664062 6.484375 -18.34375 C 5.335938 -16.03125 4.765625 -13.535156 4.765625 -10.859375 C 4.765625 -7.847656 5.65625 -5.546875 7.4375 -3.953125 C 9.21875 -2.367188 11.457031 -1.578125 14.15625 -1.578125 Z M 14.15625 -1.578125 "/></g></g></g><g fill="#ffffff" fill-opacity="1"><g transform="translate(198.847756, 234.7125)"><g><path d="M 19.09375 -28.125 C 21.894531 -28.125 24.140625 -27.367188 25.828125 -25.859375 C 27.523438 -24.359375 28.375 -22.132812 28.375 -19.1875 C 28.375 -18.269531 28.273438 -17.253906 28.078125 -16.140625 L 25.234375 0 L 23 0 L 25.84375 -15.984375 C 26.007812 -17.066406 26.09375 -17.96875 26.09375 -18.6875 C 26.09375 -21.125 25.414062 -22.972656 24.0625 -24.234375 C 22.707031 -25.503906 20.8125 -26.140625 18.375 -26.140625 C 15.53125 -26.140625 13.078125 -25.257812 11.015625 -23.5 C 8.953125 -21.738281 7.53125 -19.148438 6.75 -15.734375 L 3.953125 0 L 1.671875 0 L 6.59375 -27.5625 L 8.890625 -27.5625 L 7.875 -21.78125 C 9.019531 -23.84375 10.582031 -25.414062 12.5625 -26.5 C 14.539062 -27.582031 16.71875 -28.125 19.09375 -28.125 Z M 19.09375 -28.125 "/></g></g></g><g fill="#ffffff" fill-opacity="1"><g transform="translate(228.529184, 234.7125)"><g><path d="M 10.359375 0.40625 C 7.515625 0.40625 5.253906 -0.269531 3.578125 -1.625 C 1.898438 -2.976562 1.164062 -4.90625 1.375 -7.40625 L 3.65625 -7.40625 C 3.488281 -5.613281 4.003906 -4.179688 5.203125 -3.109375 C 6.398438 -2.046875 8.171875 -1.515625 10.515625 -1.515625 C 12.910156 -1.515625 14.816406 -2.046875 16.234375 -3.109375 C 17.660156 -4.179688 18.375 -5.566406 18.375 -7.265625 C 18.375 -8.273438 18.085938 -9.117188 17.515625 -9.796875 C 16.941406 -10.472656 16.226562 -11.015625 15.375 -11.421875 C 14.53125 -11.828125 13.347656 -12.300781 11.828125 -12.84375 C 10.140625 -13.414062 8.757812 -13.972656 7.6875 -14.515625 C 6.625 -15.054688 5.726562 -15.804688 5 -16.765625 C 4.269531 -17.734375 3.90625 -18.960938 3.90625 -20.453125 C 3.90625 -21.910156 4.328125 -23.207031 5.171875 -24.34375 C 6.023438 -25.476562 7.195312 -26.359375 8.6875 -26.984375 C 10.175781 -27.609375 11.832031 -27.921875 13.65625 -27.921875 C 16.195312 -27.921875 18.3125 -27.269531 20 -25.96875 C 21.695312 -24.664062 22.546875 -22.945312 22.546875 -20.8125 C 22.546875 -20.375 22.523438 -20.035156 22.484375 -19.796875 L 20.25 -19.796875 C 20.289062 -19.960938 20.3125 -20.234375 20.3125 -20.609375 C 20.3125 -22.234375 19.65625 -23.546875 18.34375 -24.546875 C 17.039062 -25.546875 15.410156 -26.046875 13.453125 -26.046875 C 11.359375 -26.046875 9.625 -25.546875 8.25 -24.546875 C 6.875 -23.546875 6.1875 -22.203125 6.1875 -20.515625 C 6.1875 -19.390625 6.488281 -18.460938 7.09375 -17.734375 C 7.707031 -17.015625 8.460938 -16.441406 9.359375 -16.015625 C 10.265625 -15.585938 11.476562 -15.101562 13 -14.5625 C 14.6875 -13.988281 16.03125 -13.445312 17.03125 -12.9375 C 18.03125 -12.4375 18.882812 -11.726562 19.59375 -10.8125 C 20.300781 -9.894531 20.65625 -8.726562 20.65625 -7.3125 C 20.65625 -4.9375 19.695312 -3.054688 17.78125 -1.671875 C 15.875 -0.285156 13.398438 0.40625 10.359375 0.40625 Z M 10.359375 0.40625 "/></g></g></g></svg>