<!-- <svg width="257" height="90" viewBox="0 0 257 90" fill="none" xmlns="http://www.w3.org/2000/svg">
<g clip-path="url(#clip0_2527_2099)">
<path d="M102.708 22.4182C106.48 22.4182 109.755 23.04 112.532 24.2836C115.351 25.5272 117.507 27.3097 118.999 29.6312C120.492 31.9527 121.238 34.7094 121.238 37.9014C121.238 41.0519 120.492 43.8087 118.999 46.1716C117.507 48.4931 115.351 50.2756 112.532 51.5192C109.755 52.7629 106.48 53.3847 102.708 53.3847H92.8829V65.9454H84.7992V22.4182H102.708ZM102.334 46.5447C105.858 46.5447 108.532 45.7985 110.356 44.3061C112.18 42.8138 113.092 40.6788 113.092 37.9014C113.092 35.124 112.18 32.9891 110.356 31.4967C108.532 30.0043 105.858 29.2581 102.334 29.2581H92.8829V46.5447H102.334ZM133.401 22.4182H141.485V59.1054H164.243V65.9454H133.401V22.4182ZM203.25 55.8719H181.487L177.196 65.9454H168.864L188.451 22.4182H196.41L216.06 65.9454H207.603L203.25 55.8719ZM200.576 49.5294L192.368 30.5018L184.223 49.5294H200.576ZM241.854 50.5865V65.9454H233.77V50.7109L216.67 22.4182H225.313L238.061 43.6221L250.932 22.4182H258.891L241.854 50.5865Z" fill="#040B2D"/>
<path d="M32.7273 76.909C50.802 76.909 65.4545 62.2566 65.4545 44.1818C65.4545 26.107 50.802 11.4545 32.7273 11.4545C14.6525 11.4545 0 26.107 0 44.1818C0 62.2566 14.6525 76.909 32.7273 76.909Z" fill="#3758F9"/>
<path d="M51.6575 66.3565L25.2546 31.4037H19.6633V57.9791H24.1363V37.0842L48.1462 69.0612C49.3774 68.2375 50.5502 67.333 51.6575 66.3565Z" fill="url(#paint0_linear_2527_2099)"/>
<path d="M46.6191 31.4037H42.188V57.9903H46.6191V31.4037Z" fill="url(#paint1_linear_2527_2099)"/>
</g>
<defs>
<linearGradient id="paint0_linear_2527_2099" x1="34.807" y1="47.5378" x2="49.675" y2="66.3122" gradientUnits="userSpaceOnUse">
<stop stop-color="white"/>
<stop offset="1" stop-color="white" stop-opacity="0"/>
</linearGradient>
<linearGradient id="paint1_linear_2527_2099" x1="44.4037" y1="31.4037" x2="44.3294" y2="50.9282" gradientUnits="userSpaceOnUse">
<stop stop-color="white"/>
<stop offset="1" stop-color="white" stop-opacity="0"/>
</linearGradient>
<clipPath id="clip0_2527_2099">
<rect width="256.909" height="90" fill="white"/>
</clipPath>
</defs>
</svg> -->
<svg xmlns="http://www.w3.org/2000/svg" xmlns:xlink="http://www.w3.org/1999/xlink" width="500" zoomAndPan="magnify" viewBox="0 0 375 374.999991" height="500" preserveAspectRatio="xMidYMid meet" version="1.0"><defs><g/><clipPath id="f2066e2d5c"><path d="M 287 77 L 339 77 L 339 130 L 287 130 Z M 287 77 " clip-rule="nonzero"/></clipPath><clipPath id="a59b4a16c5"><path d="M 277.398438 85.808594 L 313.199219 52.71875 L 363.085938 106.695312 L 327.285156 139.785156 Z M 277.398438 85.808594 " clip-rule="nonzero"/></clipPath><clipPath id="0ef92e88c8"><path d="M 277.398438 85.808594 L 313.199219 52.71875 L 363.085938 106.695312 L 327.285156 139.785156 Z M 277.398438 85.808594 " clip-rule="nonzero"/></clipPath><clipPath id="e2e5e8e79d"><path d="M 313 55 L 365 55 L 365 107 L 313 107 Z M 313 55 " clip-rule="nonzero"/></clipPath><clipPath id="58dcbbed40"><path d="M 302.746094 63.234375 L 338.546875 30.144531 L 388.4375 84.121094 L 352.636719 117.210938 Z M 302.746094 63.234375 " clip-rule="nonzero"/></clipPath><clipPath id="cb359c5312"><path d="M 302.746094 63.234375 L 338.546875 30.144531 L 388.4375 84.121094 L 352.636719 117.210938 Z M 302.746094 63.234375 " clip-rule="nonzero"/></clipPath></defs><g clip-path="url(#f2066e2d5c)"><g clip-path="url(#a59b4a16c5)"><g clip-path="url(#0ef92e88c8)"><path fill="#38b6ff" d="M 338.683594 79.824219 L 294.859375 77.878906 C 286.394531 77.503906 284.964844 93.992188 294.992188 94.261719 L 322.261719 95.003906 L 320.179688 122.441406 C 319.546875 130.796875 335.84375 131.679688 336.308594 123.1875 Z M 338.683594 79.824219 " fill-opacity="1" fill-rule="nonzero"/></g></g></g><g clip-path="url(#e2e5e8e79d)"><g clip-path="url(#58dcbbed40)"><g clip-path="url(#cb359c5312)"><path fill="#5271ff" d="M 364.03125 57.25 L 320.207031 55.304688 C 311.742188 54.925781 310.3125 71.417969 320.34375 71.6875 L 347.613281 72.425781 L 345.53125 99.867188 C 344.894531 108.222656 361.191406 109.105469 361.65625 100.613281 Z M 364.03125 57.25 " fill-opacity="1" fill-rule="nonzero"/></g></g></g><g fill="#373643" fill-opacity="1"><g transform="translate(1.910842, 185.48363)"><g><path d="M 65.1875 -71.359375 C 67.613281 -71.359375 69.550781 -70.679688 71 -69.328125 C 72.445312 -67.972656 73.171875 -66.21875 73.171875 -64.0625 L 73.171875 -7.296875 C 73.171875 -5.140625 72.445312 -3.382812 71 -2.03125 C 69.550781 -0.675781 67.613281 0 65.1875 0 C 62.851562 0 61.03125 -0.535156 59.71875 -1.609375 C 58.40625 -2.679688 57.613281 -4.109375 57.34375 -5.890625 C 54.164062 -3.367188 50.613281 -1.519531 46.6875 -0.34375 C 42.757812 0.820312 39.019531 1.40625 35.46875 1.40625 C 28.738281 1.40625 22.921875 -0.132812 18.015625 -3.21875 C 13.109375 -6.300781 9.34375 -10.644531 6.71875 -16.25 C 4.101562 -21.863281 2.796875 -28.410156 2.796875 -35.890625 C 2.796875 -43.179688 4.242188 -49.582031 7.140625 -55.09375 C 10.046875 -60.601562 14.09375 -64.921875 19.28125 -68.046875 C 24.46875 -71.179688 30.472656 -72.75 37.296875 -72.75 C 40.285156 -72.75 43.597656 -72.1875 47.234375 -71.0625 C 50.878906 -69.945312 54.25 -68.175781 57.34375 -65.75 C 57.707031 -67.425781 58.546875 -68.78125 59.859375 -69.8125 C 61.171875 -70.84375 62.945312 -71.359375 65.1875 -71.359375 Z M 37.15625 -12.75 C 41.257812 -12.75 45.226562 -13.660156 49.0625 -15.484375 C 52.894531 -17.304688 55.609375 -19.992188 57.203125 -23.546875 L 57.203125 -47.796875 C 55.421875 -51.253906 52.753906 -53.914062 49.203125 -55.78125 C 45.648438 -57.65625 42.050781 -58.59375 38.40625 -58.59375 C 32.519531 -58.59375 27.773438 -56.441406 24.171875 -52.140625 C 20.578125 -47.847656 18.78125 -42.382812 18.78125 -35.75 C 18.78125 -28.832031 20.460938 -23.269531 23.828125 -19.0625 C 27.191406 -14.851562 31.632812 -12.75 37.15625 -12.75 Z M 37.15625 -12.75 "/></g></g></g><g fill="#373643" fill-opacity="1"><g transform="translate(82.934606, 185.48363)"><g><path d="M 3.21875 -60.84375 C 2.382812 -62.800781 2.316406 -64.570312 3.015625 -66.15625 C 3.710938 -67.75 4.804688 -69.015625 6.296875 -69.953125 C 7.796875 -70.890625 9.34375 -71.359375 10.9375 -71.359375 C 12.519531 -71.359375 14.015625 -70.863281 15.421875 -69.875 C 16.828125 -68.894531 17.757812 -67.800781 18.21875 -66.59375 L 36.453125 -24.953125 L 53.96875 -60.984375 C 54.625 -62.566406 55.601562 -63.753906 56.90625 -64.546875 C 58.21875 -65.347656 59.671875 -65.75 61.265625 -65.75 C 64.722656 -65.75 67.195312 -64.207031 68.6875 -61.125 L 86.359375 -24.671875 L 104.4375 -66.3125 C 105.9375 -69.675781 108.460938 -71.359375 112.015625 -71.359375 C 114.441406 -71.359375 116.519531 -70.351562 118.25 -68.34375 C 119.976562 -66.332031 120.234375 -63.878906 119.015625 -60.984375 L 94.203125 -2.65625 C 93.171875 0.0507812 90.789062 1.40625 87.0625 1.40625 C 85.46875 1.40625 83.992188 1.097656 82.640625 0.484375 C 81.285156 -0.117188 80.234375 -1.117188 79.484375 -2.515625 L 61.546875 -40.515625 L 43.171875 -2.65625 C 41.867188 0.0507812 39.347656 1.40625 35.609375 1.40625 C 34.015625 1.40625 32.609375 1.097656 31.390625 0.484375 C 30.179688 -0.117188 29.203125 -1.210938 28.453125 -2.796875 Z M 3.21875 -60.84375 "/></g></g></g><g fill="#373643" fill-opacity="1"><g transform="translate(205.03103, 185.48363)"><g><path d="M 21.03125 -81.875 C 21.03125 -79.53125 20.164062 -77.773438 18.4375 -76.609375 C 16.707031 -75.441406 14.859375 -74.859375 12.890625 -74.859375 C 10.835938 -74.859375 8.96875 -75.441406 7.28125 -76.609375 C 5.601562 -77.773438 4.765625 -79.53125 4.765625 -81.875 L 4.765625 -83.6875 C 4.765625 -86.125 5.601562 -87.898438 7.28125 -89.015625 C 8.96875 -90.140625 10.835938 -90.703125 12.890625 -90.703125 C 14.859375 -90.703125 16.707031 -90.140625 18.4375 -89.015625 C 20.164062 -87.898438 21.03125 -86.125 21.03125 -83.6875 Z M 4.90625 -64.484375 C 4.90625 -66.722656 5.769531 -68.425781 7.5 -69.59375 C 9.226562 -70.769531 11.023438 -71.359375 12.890625 -71.359375 C 14.859375 -71.359375 16.679688 -70.769531 18.359375 -69.59375 C 20.046875 -68.425781 20.890625 -66.769531 20.890625 -64.625 L 20.890625 -6.875 C 20.890625 -4.53125 20.046875 -2.796875 18.359375 -1.671875 C 16.679688 -0.554688 14.859375 0 12.890625 0 C 11.023438 0 9.226562 -0.554688 7.5 -1.671875 C 5.769531 -2.796875 4.90625 -4.53125 4.90625 -6.875 Z M 4.90625 -64.484375 "/></g></g></g><g fill="#373643" fill-opacity="1"><g transform="translate(228.020378, 185.48363)"><g><path d="M 1.828125 -16.6875 C 1.171875 -19.300781 1.773438 -21.398438 3.640625 -22.984375 C 5.515625 -24.578125 7.570312 -25.375 9.8125 -25.375 C 11.5 -25.375 12.992188 -24.882812 14.296875 -23.90625 C 15.609375 -22.925781 16.59375 -21.453125 17.25 -19.484375 C 17.800781 -17.804688 19.007812 -16.425781 20.875 -15.34375 C 22.75 -14.269531 24.925781 -13.5 27.40625 -13.03125 C 29.882812 -12.570312 32.382812 -12.34375 34.90625 -12.34375 C 39.957031 -12.34375 44.023438 -13.25 47.109375 -15.0625 C 50.191406 -16.882812 51.734375 -19.203125 51.734375 -22.015625 C 51.734375 -23.972656 50.914062 -25.414062 49.28125 -26.34375 C 47.644531 -27.28125 45.492188 -27.9375 42.828125 -28.3125 C 40.160156 -28.6875 37.332031 -28.96875 34.34375 -29.15625 C 30.414062 -29.53125 26.5625 -30 22.78125 -30.5625 C 19 -31.125 15.5625 -32.082031 12.46875 -33.4375 C 9.382812 -34.789062 6.910156 -36.796875 5.046875 -39.453125 C 3.179688 -42.117188 2.25 -45.742188 2.25 -50.328125 C 2.25 -54.816406 3.554688 -58.742188 6.171875 -62.109375 C 8.785156 -65.472656 12.472656 -68.085938 17.234375 -69.953125 C 22.003906 -71.816406 27.519531 -72.75 33.78125 -72.75 C 37.425781 -72.75 41.351562 -72.398438 45.5625 -71.703125 C 49.769531 -71.003906 53.671875 -69.578125 57.265625 -67.421875 C 60.859375 -65.273438 63.5 -61.960938 65.1875 -57.484375 C 65.84375 -55.609375 65.796875 -53.945312 65.046875 -52.5 C 64.296875 -51.050781 63.195312 -49.953125 61.75 -49.203125 C 60.300781 -48.453125 58.832031 -48.078125 57.34375 -48.078125 C 55.65625 -48.078125 54.273438 -48.40625 53.203125 -49.0625 C 52.128906 -49.71875 51.21875 -50.84375 50.46875 -52.4375 C 49.625 -54.394531 48.195312 -55.835938 46.1875 -56.765625 C 44.175781 -57.703125 42.023438 -58.285156 39.734375 -58.515625 C 37.453125 -58.753906 35.46875 -58.875 33.78125 -58.875 C 29.113281 -58.875 25.351562 -58.078125 22.5 -56.484375 C 19.644531 -54.898438 18.21875 -52.800781 18.21875 -50.1875 C 18.21875 -47.945312 18.960938 -46.425781 20.453125 -45.625 C 21.953125 -44.832031 23.988281 -44.363281 26.5625 -44.21875 C 29.132812 -44.082031 32.007812 -43.828125 35.1875 -43.453125 C 39.113281 -42.984375 42.992188 -42.46875 46.828125 -41.90625 C 50.660156 -41.351562 54.164062 -40.398438 57.34375 -39.046875 C 60.519531 -37.691406 63.039062 -35.679688 64.90625 -33.015625 C 66.769531 -30.347656 67.703125 -26.679688 67.703125 -22.015625 C 67.703125 -17.429688 66.320312 -13.363281 63.5625 -9.8125 C 60.8125 -6.257812 56.984375 -3.5 52.078125 -1.53125 C 47.171875 0.425781 41.445312 1.40625 34.90625 1.40625 C 32.007812 1.40625 28.851562 1.191406 25.4375 0.765625 C 22.03125 0.347656 18.710938 -0.488281 15.484375 -1.75 C 12.265625 -3.007812 9.4375 -4.832031 7 -7.21875 C 4.570312 -9.601562 2.847656 -12.757812 1.828125 -16.6875 Z M 1.828125 -16.6875 "/></g></g></g><g fill="#373643" fill-opacity="1"><g transform="translate(51.152954, 234.7125)"><g><path d="M 10.359375 0.40625 C 7.515625 0.40625 5.253906 -0.269531 3.578125 -1.625 C 1.898438 -2.976562 1.164062 -4.90625 1.375 -7.40625 L 3.65625 -7.40625 C 3.488281 -5.613281 4.003906 -4.179688 5.203125 -3.109375 C 6.398438 -2.046875 8.171875 -1.515625 10.515625 -1.515625 C 12.910156 -1.515625 14.816406 -2.046875 16.234375 -3.109375 C 17.660156 -4.179688 18.375 -5.566406 18.375 -7.265625 C 18.375 -8.273438 18.085938 -9.117188 17.515625 -9.796875 C 16.941406 -10.472656 16.226562 -11.015625 15.375 -11.421875 C 14.53125 -11.828125 13.347656 -12.300781 11.828125 -12.84375 C 10.140625 -13.414062 8.757812 -13.972656 7.6875 -14.515625 C 6.625 -15.054688 5.726562 -15.804688 5 -16.765625 C 4.269531 -17.734375 3.90625 -18.960938 3.90625 -20.453125 C 3.90625 -21.910156 4.328125 -23.207031 5.171875 -24.34375 C 6.023438 -25.476562 7.195312 -26.359375 8.6875 -26.984375 C 10.175781 -27.609375 11.832031 -27.921875 13.65625 -27.921875 C 16.195312 -27.921875 18.3125 -27.269531 20 -25.96875 C 21.695312 -24.664062 22.546875 -22.945312 22.546875 -20.8125 C 22.546875 -20.375 22.523438 -20.035156 22.484375 -19.796875 L 20.25 -19.796875 C 20.289062 -19.960938 20.3125 -20.234375 20.3125 -20.609375 C 20.3125 -22.234375 19.65625 -23.546875 18.34375 -24.546875 C 17.039062 -25.546875 15.410156 -26.046875 13.453125 -26.046875 C 11.359375 -26.046875 9.625 -25.546875 8.25 -24.546875 C 6.875 -23.546875 6.1875 -22.203125 6.1875 -20.515625 C 6.1875 -19.390625 6.488281 -18.460938 7.09375 -17.734375 C 7.707031 -17.015625 8.460938 -16.441406 9.359375 -16.015625 C 10.265625 -15.585938 11.476562 -15.101562 13 -14.5625 C 14.6875 -13.988281 16.03125 -13.445312 17.03125 -12.9375 C 18.03125 -12.4375 18.882812 -11.726562 19.59375 -10.8125 C 20.300781 -9.894531 20.65625 -8.726562 20.65625 -7.3125 C 20.65625 -4.9375 19.695312 -3.054688 17.78125 -1.671875 C 15.875 -0.285156 13.398438 0.40625 10.359375 0.40625 Z M 10.359375 0.40625 "/></g></g></g><g fill="#373643" fill-opacity="1"><g transform="translate(74.441248, 234.7125)"><g><path d="M 13.859375 0.40625 C 10.410156 0.40625 7.644531 -0.585938 5.5625 -2.578125 C 3.476562 -4.578125 2.4375 -7.289062 2.4375 -10.71875 C 2.4375 -13.820312 3.140625 -16.691406 4.546875 -19.328125 C 5.953125 -21.972656 7.90625 -24.066406 10.40625 -25.609375 C 12.90625 -27.148438 15.695312 -27.921875 18.78125 -27.921875 C 21.019531 -27.921875 23 -27.472656 24.71875 -26.578125 C 26.445312 -25.679688 27.789062 -24.394531 28.75 -22.71875 C 29.71875 -21.039062 30.203125 -19.066406 30.203125 -16.796875 C 30.203125 -13.691406 29.488281 -10.816406 28.0625 -8.171875 C 26.644531 -5.535156 24.691406 -3.445312 22.203125 -1.90625 C 19.722656 -0.363281 16.941406 0.40625 13.859375 0.40625 Z M 14.15625 -1.578125 C 16.800781 -1.578125 19.164062 -2.269531 21.25 -3.65625 C 23.332031 -5.039062 24.957031 -6.882812 26.125 -9.1875 C 27.289062 -11.488281 27.875 -13.992188 27.875 -16.703125 C 27.875 -19.710938 26.972656 -22.007812 25.171875 -23.59375 C 23.378906 -25.1875 21.128906 -25.984375 18.421875 -25.984375 C 15.753906 -25.984375 13.382812 -25.289062 11.3125 -23.90625 C 9.25 -22.519531 7.640625 -20.664062 6.484375 -18.34375 C 5.335938 -16.03125 4.765625 -13.535156 4.765625 -10.859375 C 4.765625 -7.847656 5.65625 -5.546875 7.4375 -3.953125 C 9.21875 -2.367188 11.457031 -1.578125 14.15625 -1.578125 Z M 14.15625 -1.578125 "/></g></g></g><g fill="#373643" fill-opacity="1"><g transform="translate(105.238955, 234.7125)"><g><path d="M 10.609375 -37.5625 L 3.953125 0 L 1.671875 0 L 8.328125 -37.5625 Z M 10.609375 -37.5625 "/></g></g></g><g fill="#373643" fill-opacity="1"><g transform="translate(113.965091, 234.7125)"><g><path d="M 29.84375 -27.5625 L 24.984375 0 L 22.6875 0 L 23.765625 -5.9375 C 22.609375 -3.875 21.03125 -2.289062 19.03125 -1.1875 C 17.039062 -0.09375 14.878906 0.453125 12.546875 0.453125 C 9.734375 0.453125 7.472656 -0.296875 5.765625 -1.796875 C 4.054688 -3.304688 3.203125 -5.550781 3.203125 -8.53125 C 3.203125 -9.644531 3.285156 -10.644531 3.453125 -11.53125 L 6.34375 -27.5625 L 8.578125 -27.5625 L 5.734375 -11.671875 C 5.566406 -10.585938 5.484375 -9.707031 5.484375 -9.03125 C 5.484375 -6.5625 6.160156 -4.691406 7.515625 -3.421875 C 8.867188 -2.148438 10.765625 -1.515625 13.203125 -1.515625 C 16.179688 -1.515625 18.726562 -2.472656 20.84375 -4.390625 C 22.957031 -6.304688 24.316406 -9.109375 24.921875 -12.796875 L 24.921875 -12.640625 L 27.5625 -27.5625 Z M 29.84375 -27.5625 "/></g></g></g><g fill="#373643" fill-opacity="1"><g transform="translate(143.64652, 234.7125)"><g><path d="M 6.390625 -7.359375 C 6.253906 -6.679688 6.1875 -6.003906 6.1875 -5.328125 C 6.1875 -4.109375 6.523438 -3.253906 7.203125 -2.765625 C 7.878906 -2.273438 9 -2.03125 10.5625 -2.03125 L 13.609375 -2.03125 L 13.25 0 L 9.796875 0 C 7.765625 0 6.265625 -0.382812 5.296875 -1.15625 C 4.335938 -1.9375 3.859375 -3.226562 3.859375 -5.03125 C 3.859375 -5.800781 3.925781 -6.578125 4.0625 -7.359375 L 7.3125 -25.578125 L 3.140625 -25.578125 L 3.5 -27.5625 L 7.671875 -27.5625 L 8.890625 -34.578125 L 11.21875 -34.578125 L 10 -27.5625 L 18.125 -27.5625 L 17.765625 -25.578125 L 9.640625 -25.578125 Z M 6.390625 -7.359375 "/></g></g></g><g fill="#373643" fill-opacity="1"><g transform="translate(159.323913, 234.7125)"><g><path d="M 8.78125 -33.703125 C 8.3125 -33.703125 7.921875 -33.847656 7.609375 -34.140625 C 7.304688 -34.429688 7.15625 -34.8125 7.15625 -35.28125 C 7.15625 -35.957031 7.390625 -36.523438 7.859375 -36.984375 C 8.335938 -37.441406 8.882812 -37.671875 9.5 -37.671875 C 9.96875 -37.671875 10.363281 -37.515625 10.6875 -37.203125 C 11.007812 -36.898438 11.171875 -36.515625 11.171875 -36.046875 C 11.171875 -35.367188 10.925781 -34.804688 10.4375 -34.359375 C 9.945312 -33.921875 9.394531 -33.703125 8.78125 -33.703125 Z M 8.890625 -27.5625 L 3.953125 0 L 1.671875 0 L 6.59375 -27.5625 Z M 8.890625 -27.5625 "/></g></g></g><g fill="#373643" fill-opacity="1"><g transform="translate(168.05005, 234.7125)"><g><path d="M 13.859375 0.40625 C 10.410156 0.40625 7.644531 -0.585938 5.5625 -2.578125 C 3.476562 -4.578125 2.4375 -7.289062 2.4375 -10.71875 C 2.4375 -13.820312 3.140625 -16.691406 4.546875 -19.328125 C 5.953125 -21.972656 7.90625 -24.066406 10.40625 -25.609375 C 12.90625 -27.148438 15.695312 -27.921875 18.78125 -27.921875 C 21.019531 -27.921875 23 -27.472656 24.71875 -26.578125 C 26.445312 -25.679688 27.789062 -24.394531 28.75 -22.71875 C 29.71875 -21.039062 30.203125 -19.066406 30.203125 -16.796875 C 30.203125 -13.691406 29.488281 -10.816406 28.0625 -8.171875 C 26.644531 -5.535156 24.691406 -3.445312 22.203125 -1.90625 C 19.722656 -0.363281 16.941406 0.40625 13.859375 0.40625 Z M 14.15625 -1.578125 C 16.800781 -1.578125 19.164062 -2.269531 21.25 -3.65625 C 23.332031 -5.039062 24.957031 -6.882812 26.125 -9.1875 C 27.289062 -11.488281 27.875 -13.992188 27.875 -16.703125 C 27.875 -19.710938 26.972656 -22.007812 25.171875 -23.59375 C 23.378906 -25.1875 21.128906 -25.984375 18.421875 -25.984375 C 15.753906 -25.984375 13.382812 -25.289062 11.3125 -23.90625 C 9.25 -22.519531 7.640625 -20.664062 6.484375 -18.34375 C 5.335938 -16.03125 4.765625 -13.535156 4.765625 -10.859375 C 4.765625 -7.847656 5.65625 -5.546875 7.4375 -3.953125 C 9.21875 -2.367188 11.457031 -1.578125 14.15625 -1.578125 Z M 14.15625 -1.578125 "/></g></g></g><g fill="#373643" fill-opacity="1"><g transform="translate(198.847756, 234.7125)"><g><path d="M 19.09375 -28.125 C 21.894531 -28.125 24.140625 -27.367188 25.828125 -25.859375 C 27.523438 -24.359375 28.375 -22.132812 28.375 -19.1875 C 28.375 -18.269531 28.273438 -17.253906 28.078125 -16.140625 L 25.234375 0 L 23 0 L 25.84375 -15.984375 C 26.007812 -17.066406 26.09375 -17.96875 26.09375 -18.6875 C 26.09375 -21.125 25.414062 -22.972656 24.0625 -24.234375 C 22.707031 -25.503906 20.8125 -26.140625 18.375 -26.140625 C 15.53125 -26.140625 13.078125 -25.257812 11.015625 -23.5 C 8.953125 -21.738281 7.53125 -19.148438 6.75 -15.734375 L 3.953125 0 L 1.671875 0 L 6.59375 -27.5625 L 8.890625 -27.5625 L 7.875 -21.78125 C 9.019531 -23.84375 10.582031 -25.414062 12.5625 -26.5 C 14.539062 -27.582031 16.71875 -28.125 19.09375 -28.125 Z M 19.09375 -28.125 "/></g></g></g><g fill="#373643" fill-opacity="1"><g transform="translate(228.529184, 234.7125)"><g><path d="M 10.359375 0.40625 C 7.515625 0.40625 5.253906 -0.269531 3.578125 -1.625 C 1.898438 -2.976562 1.164062 -4.90625 1.375 -7.40625 L 3.65625 -7.40625 C 3.488281 -5.613281 4.003906 -4.179688 5.203125 -3.109375 C 6.398438 -2.046875 8.171875 -1.515625 10.515625 -1.515625 C 12.910156 -1.515625 14.816406 -2.046875 16.234375 -3.109375 C 17.660156 -4.179688 18.375 -5.566406 18.375 -7.265625 C 18.375 -8.273438 18.085938 -9.117188 17.515625 -9.796875 C 16.941406 -10.472656 16.226562 -11.015625 15.375 -11.421875 C 14.53125 -11.828125 13.347656 -12.300781 11.828125 -12.84375 C 10.140625 -13.414062 8.757812 -13.972656 7.6875 -14.515625 C 6.625 -15.054688 5.726562 -15.804688 5 -16.765625 C 4.269531 -17.734375 3.90625 -18.960938 3.90625 -20.453125 C 3.90625 -21.910156 4.328125 -23.207031 5.171875 -24.34375 C 6.023438 -25.476562 7.195312 -26.359375 8.6875 -26.984375 C 10.175781 -27.609375 11.832031 -27.921875 13.65625 -27.921875 C 16.195312 -27.921875 18.3125 -27.269531 20 -25.96875 C 21.695312 -24.664062 22.546875 -22.945312 22.546875 -20.8125 C 22.546875 -20.375 22.523438 -20.035156 22.484375 -19.796875 L 20.25 -19.796875 C 20.289062 -19.960938 20.3125 -20.234375 20.3125 -20.609375 C 20.3125 -22.234375 19.65625 -23.546875 18.34375 -24.546875 C 17.039062 -25.546875 15.410156 -26.046875 13.453125 -26.046875 C 11.359375 -26.046875 9.625 -25.546875 8.25 -24.546875 C 6.875 -23.546875 6.1875 -22.203125 6.1875 -20.515625 C 6.1875 -19.390625 6.488281 -18.460938 7.09375 -17.734375 C 7.707031 -17.015625 8.460938 -16.441406 9.359375 -16.015625 C 10.265625 -15.585938 11.476562 -15.101562 13 -14.5625 C 14.6875 -13.988281 16.03125 -13.445312 17.03125 -12.9375 C 18.03125 -12.4375 18.882812 -11.726562 19.59375 -10.8125 C 20.300781 -9.894531 20.65625 -8.726562 20.65625 -7.3125 C 20.65625 -4.9375 19.695312 -3.054688 17.78125 -1.671875 C 15.875 -0.285156 13.398438 0.40625 10.359375 0.40625 Z M 10.359375 0.40625 "/></g></g></g></svg>